<?xml version="1.0" encoding="UTF-8"?>
<svg width="36px" height="43px" viewBox="0 0 36 43" version="1.1" xmlns="http://www.w3.org/2000/svg" xmlns:xlink="http://www.w3.org/1999/xlink">
    <g id="Page-1" stroke="none" stroke-width="1" fill="none" fill-rule="evenodd">
        <g id="Group" fill-rule="nonzero">
            <rect id="Rectangle" fill="#41B2FF" x="3" y="6" width="14" height="6" rx="3"></rect>
            <rect id="Rectangle" fill="#FF415B" x="18" y="13" width="14" height="6" rx="3"></rect>
            <rect id="Rectangle" fill="#4FE031" x="3" y="13" width="14" height="6" rx="3"></rect>
            <rect id="Rectangle" fill="#4FE031" x="18" y="20" width="14" height="6" rx="3"></rect>
            <rect id="Rectangle" fill="#FF415B" x="3" y="20" width="14" height="6" rx="3"></rect>
            <rect id="Rectangle" fill="#41B2FF" x="18" y="27" width="14" height="6" rx="3"></rect>
            <g transform="translate(8.836622, 50.411463) rotate(-36.000000) translate(-8.836622, -34.411463) translate(1.336622, 29.911463)" id="Oval">
                <ellipse fill="#FF415B" cx="7.10924564" cy="5.18639826" rx="2.9833027" ry="2.95654894"></ellipse>
                <g fill="#41B2FF">
                    <ellipse cx="2.14327838" cy="2.14557149" rx="2.11014109" ry="2.09121788"></ellipse>
                    <ellipse cx="12.1579143" cy="2.22565748" rx="2.11014109" ry="2.09121788"></ellipse>
                </g>
            </g>
            <g transform="translate(26.574651, 7.185943) rotate(18.000000) translate(-26.574651, -7.185943) translate(19.074651, 2.685943)" id="Oval">
                <ellipse fill="#4FE031" cx="7.10924569" cy="5.1863983" rx="2.98330272" ry="2.95654897"></ellipse>
                <g transform="translate(0.000000, 0.000000)" fill="#41B2FF">
                    <ellipse cx="2.14327839" cy="2.14557151" rx="2.11014111" ry="2.09121789"></ellipse>
                    <ellipse cx="12.1579144" cy="2.2256575" rx="2.11014111" ry="2.09121789"></ellipse>
                </g>
            </g>
        </g>
    </g>
</svg>