<?xml version="1.0" encoding="UTF-8"?>
<svg width="30px" height="35px" viewBox="0 0 30 35" version="1.1" xmlns="http://www.w3.org/2000/svg" xmlns:xlink="http://www.w3.org/1999/xlink">
    <g id="Page-1" stroke="none" stroke-width="1" fill="none" fill-rule="evenodd">
        <g id="Group-2">
            <g id="Group" fill="#2077B4" fill-rule="nonzero">
                <path d="M26.6666406,3.75 L19.8424219,3.75 C19.2874219,1.5934375 17.3297656,0 15,0 C12.6702344,0 10.7125781,1.5934375 10.1575781,3.75 L3.33335938,3.75 C1.49984375,3.75 0,5.24984375 0,7.08335937 L0,31.6665625 C0,33.5000781 1.49984375,35 3.33335938,35 L26.6666406,35 C28.5001562,35 30,33.5000781 30,31.6665625 L30,7.08335937 C30,5.24984375 28.5001562,3.75 26.6666406,3.75 Z M15,3.75 C15.9163281,3.75 16.6666406,4.49992188 16.6666406,5.41664062 C16.6666406,6.33335937 15.9163281,7.08335938 15,7.08335938 C14.0836719,7.08335938 13.3333594,6.33335938 13.3333594,5.41664062 C13.3333594,4.49992187 14.0836719,3.75 15,3.75 Z M26.875,31.875 L3.125,31.875 L3.125,6.875 L6.25,6.875 L6.25,12.5 L23.75,12.5 L23.75,6.875 L26.875,6.875 L26.875,31.875 Z" id="Shape"></path>
            </g>
            <path d="M19,16.118034 L24.190983,26.5 L13.809017,26.5 L19,16.118034 Z" id="Triangle" stroke="#FF7F0F" fill="#FF7F0F" transform="translate(19.000000, 21.000000) rotate(-270.000000) translate(-19.000000, -21.000000) "></path>
            <rect id="Rectangle" stroke="#FF7F0F" fill="#FF7F0F" x="6.5" y="19.5" width="10" height="3"></rect>
        </g>
    </g>
</svg>