<?xml version="1.0" encoding="UTF-8"?>
<!-- Generated by Pixelmator Pro 2.4.4 -->
<svg width="24" height="24" viewBox="0 0 24 24" xmlns="http://www.w3.org/2000/svg" xmlns:xlink="http://www.w3.org/1999/xlink">
    <path id="Path" fill="#d2d0d0" fill-rule="evenodd" stroke="none" d="M 3 2 C 7.796252 3.070026 10 3 10 3 L 10 8 L 4 9 C 4 9 -1.796252 0.929974 3 2 Z"/>
    <path id="path1" fill="#d2d0d0" fill-rule="evenodd" stroke="none" d="M 2 13 L 10 8 L 10 13 L 3 14 L 2 13 Z"/>
    <path id="path2" fill="#d2d0d0" fill-rule="evenodd" stroke="none" d="M 3 15 L 10 17 L 10 19 L 2 16 L 3 15 Z"/>
    <path id="path3" fill="#d2d0d0" fill-rule="evenodd" stroke="none" d="M 3 19 L 11 19 L 11 23 L 3 22 L 3 19 Z"/>
    <path id="path4" fill="#d2d0d0" fill-rule="evenodd" stroke="none" d="M 13 2 L 20 1 L 20 6 L 12 7 L 13 2 Z"/>
    <path id="path5" fill="#d2d0d0" fill-rule="evenodd" stroke="none" d="M 12 8 L 19 9.5 L 20 14 L 12 13 L 12 8 Z"/>
    <path id="path6" fill="#d2d0d0" fill-rule="evenodd" stroke="none" d="M 13 19 L 19 16 L 20 13 L 12 17 L 13 19 Z"/>
    <path id="path7" fill="#d2d0d0" fill-rule="evenodd" stroke="none" d="M 13 19 L 20 19 L 20 23 L 13 23 L 13 19 Z"/>
    <path id="Rounded-Rectangle" fill="#b4b4b4" fill-rule="evenodd" stroke="none" d="M 20 9 C 19.44772 9 19 9.44772 19 10 L 19 15 C 19 15.55228 19.44772 16 20 16 L 21 16 C 21.55228 16 22 15.55228 22 15 L 22 10 C 22 9.44772 21.55228 9 21 9 Z"/>
    <path id="Rounded-Rectangle-copy-2" fill="#b4b4b4" fill-rule="evenodd" stroke="none" d="M 20 19 C 19.44772 19 19 19.44772 19 20 L 19 22 C 19 22.55228 19.44772 23 20 23 L 21 23 C 21.55228 23 22 22.55228 22 22 L 22 20 C 22 19.44772 21.55228 19 21 19 Z"/>
    <path id="Rounded-Rectangle-copy" fill="#b4b4b4" fill-rule="evenodd" stroke="none" d="M 20.5 1 C 19.671579 1 19 1.671579 19 2.5 L 19 4.5 C 19 5.328421 19.671579 6 20.5 6 L 20.5 6 C 21.328421 6 22 5.328421 22 4.5 L 22 2.5 C 22 1.671579 21.328421 1 20.5 1 Z"/>
    <path id="Rounded-Rectangle-copy-3" fill="#b4b4b4" fill-rule="evenodd" stroke="none" d="M 11.5 1 C 10.67158 1 10 1.671581 10 2.5 L 10 11.5 C 10 12.32842 10.67158 13 11.5 13 L 11.5 13 C 12.32842 13 13 12.32842 13 11.5 L 13 2.5 C 13 1.671581 12.32842 1 11.5 1 Z"/>
    <path id="Rounded-Rectangle-copy-5" fill="#b4b4b4" fill-rule="evenodd" stroke="none" d="M 2.5 1 C 1.67158 1 1 1.671579 1 2.5 L 1 7.5 C 1 8.32842 1.67158 9 2.5 9 L 2.5 9 C 3.32842 9 4 8.32842 4 7.5 L 4 2.5 C 4 1.671579 3.32842 1 2.5 1 Z"/>
    <path id="Rounded-Rectangle-copy-6" fill="#b4b4b4" fill-rule="evenodd" stroke="none" d="M 2.5 12 C 1.67158 12 1 12.67158 1 13.5 L 1 14.5 C 1 15.32842 1.67158 16 2.5 16 L 2.5 16 C 3.32842 16 4 15.32842 4 14.5 L 4 13.5 C 4 12.67158 3.32842 12 2.5 12 Z"/>
    <path id="Rounded-Rectangle-copy-7" fill="#b4b4b4" fill-rule="evenodd" stroke="none" d="M 2.5 18 C 1.67158 18 1 18.671579 1 19.5 L 1 21.5 C 1 22.328421 1.67158 23 2.5 23 L 2.5 23 C 3.32842 23 4 22.328421 4 21.5 L 4 19.5 C 4 18.671579 3.32842 18 2.5 18 Z"/>
    <path id="Rounded-Rectangle-copy-4" fill="#b4b4b4" fill-rule="evenodd" stroke="none" d="M 11.5 16 C 10.67158 16 10 16.671579 10 17.5 L 10 21.5 C 10 22.328421 10.67158 23 11.5 23 L 11.5 23 C 12.32842 23 13 22.328421 13 21.5 L 13 17.5 C 13 16.671579 12.32842 16 11.5 16 Z"/>
</svg>
