<?xml version="1.0" encoding="UTF-8"?>
<svg viewBox="0 0 222 152" version="1.1" xmlns="http://www.w3.org/2000/svg" xmlns:xlink="http://www.w3.org/1999/xlink">
    <title>Group</title>
    <g id="Page-1" stroke="none" stroke-width="1" fill="none" fill-rule="evenodd">
        <g id="Group" transform="translate(3.000000, 3.000000)">
            <path d="M28.533078,36.44163 C28.533078,36.44163 33.091443,9.09144 51.324904,9.09144 C60.441634,9.09144 60.441634,18.20817 60.441634,18.20817" id="path944" stroke="#000000" stroke-width="5" stroke-linecap="round" fill-rule="nonzero"></path>
            <path d="M191.25283,64.48252 C189.23027,38.1243 154.20394,5.86134 124.58434,0.95151 C90.56488,-4.68767 51.165423,24.02002 25.356106,44.22325 C11.55753,55.02461 -2.9709001,70.02488 1.182886,82.02529 C2.294231,85.23599 6.992901,85.80304 10.299617,86.58365 C22.130081,89.37644 34.767858,84.63654 46.766539,86.58365 C56.252328,88.12298 64.531005,96.38128 74.11673,95.70038 C104.78223,93.52212 137.67934,89.71593 165.28403,86.58365 C171.76105,85.84871 175.72855,79.81073 181.10369,74.87823 C185.10147,71.20968 191.62376,69.31653 191.25283,64.48252 Z" id="path129" stroke="#000000" stroke-width="6" fill-rule="nonzero"></path>
            <path d="M65,54.6751 C69.558365,63.79183 105.33706,58.53371 95.98763,36.97093 C82.588314,6.06784 63.786694,41.1301 65,41" id="path936" stroke="#000000" stroke-width="6" stroke-linecap="round"></path>
            <ellipse id="path942" fill="#000000" fill-rule="nonzero" cx="34.914787" cy="59.23347" rx="6.3817115" ry="4.5583653"></ellipse>
            <line x1="61.353307" y1="93.87704" x2="43.119846" y2="96.61206" id="path946" stroke="#000000" stroke-width="5" stroke-linecap="round"></line>
            <line x1="178.95913" y1="82.02529" x2="192.63422" y2="86.58365" id="path948" stroke="#000000" stroke-width="5" stroke-linecap="round"></line>
            <line x1="174.40076" y1="82.02529" x2="180.78247" y2="90.23034" id="path950" stroke="#000000" stroke-width="5" stroke-linecap="round"></line>
            <line x1="65" y1="95.70038" x2="53.14825" y2="102.99377" id="path952" stroke="#000000" stroke-width="5" stroke-linecap="round"></line>
            <path d="M192.63422,68.35019 C192.63422,68.35019 219.61698,87.87799 215.42605,100.25875 C208.54633,120.58271 175.02076,122.85903 153.88812,119.14341 C124.25875,113.93384 96.58264,106.33622 77.698302,123.37617 C72.068209,128.45638 70.917326,137.58037 74.11673,145.8424" id="path954" stroke="#000000" stroke-width="5" stroke-linecap="round"></path>
        </g>
    </g>
</svg>