<?xml version="1.0" encoding="UTF-8"?>
<svg width="49px" height="40px" viewBox="0 0 49 40" version="1.1" xmlns="http://www.w3.org/2000/svg" xmlns:xlink="http://www.w3.org/1999/xlink">
    <title>Group 3</title>
    <g id="Page-1" stroke="none" stroke-width="1" fill="none" fill-rule="evenodd">
        <g id="Artboard" transform="translate(-165.000000, -53.000000)" fill="#000000">
            <g id="Group-3" transform="translate(165.000000, 53.000000)">
                <path d="M31.57692,14.72973 C31.57692,14.13514 31.57692,13.24324 31.8718,12.35135 C32.16667,8.48649 35.41026,7.89189 35.70513,7.89189 C35.70513,7.59459 36,7.59459 36,7.2973 C36,7 35.70513,7 35.41026,7 C35.41026,7 31.28205,7.89189 30.98718,12.35135 C30.69231,13.24324 30.69231,13.83784 30.69231,14.72973 C30.39744,18.2973 30.10256,21.86486 27.74359,25.43243 C27.74359,25.72973 25.38462,27.81081 24.5,33.756757 C23.61539,27.81081 21.25641,25.72973 21.25641,25.72973 C18.60256,21.86486 18.30769,18.2973 18.30769,14.72973 C18.01282,13.83784 18.01282,13.24324 18.01282,12.35135 C17.42308,7.89189 13.58974,7 13.58974,7 C13.29487,7 13,7 13,7.2973 C13,7.59459 13,7.59459 13.29487,7.89189 C13.29487,7.89189 16.83333,8.48649 17.12821,12.35135 C17.12821,13.24324 17.12821,14.13514 17.42308,14.72973 C17.71795,18.59459 17.71795,22.16216 20.3718,26.02703 C20.3718,26.32432 23.91026,29.59459 23.91026,39.4054065 C23.91026,39.7027023 24.20513,40 24.5,40 C24.79487,40 24.79487,39.7027023 24.79487,39.4054065 C24.79487,29.59459 28.33333,26.32432 28.33333,26.02703 C30.98718,22.16216 31.28205,18.59459 31.57692,14.72973 Z" id="Fill-1"></path>
                <path d="M49,7.76119 C49,3.58209 45.81065,0 42.04142,0 C39.14201,0 36.53254,1.49254 35.08284,2.08955 C34.50296,2.68657 33.63314,2.98507 32.76331,3.28358 C27.54438,4.77612 24.93491,4.77612 24.64497,4.77612 C24.64497,4.77612 24.64497,4.77612 24.64497,4.77612 C24.64497,4.77612 24.64497,4.77612 24.64497,4.77612 C24.64497,4.77612 21.74556,4.77612 16.52663,3.28358 C15.65681,2.98507 14.78698,2.68657 13.91716,2.08955 C12.7574,1.49254 9.857989,0 7.248521,0 C3.47929,0 0.2899408,3.58209 0.2899408,7.76119 C0.2899408,8.0597 0,11.34328 2.609468,12.53731 C4.639053,13.43284 5.218935,16.1194 5.218935,16.1194 C5.218935,17.91045 6.378698,20.59702 9.568048,20.29851 C11.01775,20 11.88757,19.40299 11.88757,17.91045 C12.17751,15.8209 10.72781,12.83582 8.698225,11.9403 C5.508876,10.74627 4.349112,9.25373 4.349112,7.16418 C4.349112,6.56716 4.349112,5.97015 4.928994,5.37313 C5.508876,5.07463 6.668639,5.07463 7.828403,5.67164 C10.14793,6.86567 14.2071,12.23881 14.49704,17.61194 C14.78698,22.98507 15.65681,27.46269 19.1361,31.343283 C19.1361,31.641792 21.74556,34.328359 21.74556,39.4029853 C21.74556,39.7014942 21.74556,40 22.0355,40 C22.32544,40 22.61538,39.7014942 22.61538,39.4029853 C22.61538,34.02985 19.71598,31.044777 19.71598,30.74627 C16.52663,27.16418 15.65681,22.68657 15.36686,17.61194 C15.07692,11.64179 11.01775,6.26866 8.118344,5.07463 C6.668639,4.1791 5.508876,4.1791 4.639053,4.77612 C4.059172,5.07463 3.47929,5.67164 3.47929,7.16418 C3.47929,9.85075 4.928994,11.34328 8.118344,12.83582 C10.14793,13.43284 11.30769,16.1194 11.01775,17.91045 C11.01775,18.80597 10.43787,19.40299 9.568048,19.40299 C6.378698,19.70149 6.088757,16.41791 6.088757,16.1194 C6.088757,16.1194 5.218935,12.83582 2.899408,11.64179 C0.8698225,10.74627 1.159763,7.76119 1.159763,7.76119 C1.159763,3.8806 3.769231,0.89552 7.248521,0.89552 C9.857989,0.89552 12.17751,2.08955 13.62722,2.98507 C14.49704,3.28358 15.36686,3.8806 16.23669,4.1791 C21.74556,5.67164 24.35503,5.67164 24.64497,5.67164 C24.64497,5.67164 24.64497,5.67164 24.64497,5.67164 C24.64497,5.67164 27.54438,5.67164 33.05326,4.1791 C33.92308,3.8806 34.7929,3.28358 35.66272,2.98507 C36.82249,2.08955 39.43195,0.89552 42.04142,0.89552 C45.23077,0.89552 48.13018,3.8806 48.13018,7.76119 C48.13018,7.76119 48.13018,10.74627 46.39053,11.64179 C43.78106,12.83582 43.20118,16.1194 43.20118,16.1194 C43.20118,16.41791 42.6213,19.70149 39.7219,19.40299 C38.85207,19.40299 38.27219,18.80597 37.98225,17.91045 C37.98225,16.1194 39.14201,13.43284 40.88166,12.83582 C44.36095,11.34328 45.81065,9.85075 45.81065,7.16418 C45.81065,5.67164 45.23077,5.07463 44.65089,4.77612 C43.78106,4.1791 42.6213,4.1791 40.88166,5.07463 C38.27219,6.26866 34.21302,11.64179 33.92308,17.61194 C33.63314,22.68657 32.76331,27.16418 29.57396,30.74627 C29.28402,31.044777 26.67456,34.02985 26.67456,39.4029853 C26.67456,39.7014942 26.67456,40 26.9645,40 C27.25444,40 27.54438,39.7014942 27.54438,39.4029853 C27.54438,34.328359 30.15385,31.641792 30.15385,31.343283 C33.63314,27.46269 34.50296,22.98507 34.7929,17.61194 C35.08284,12.23881 38.85207,6.86567 41.1716,5.67164 C42.6213,5.07463 43.49112,5.07463 44.071,5.37313 C44.65089,5.97015 44.94083,6.56716 44.94083,7.16418 C44.94083,9.25373 43.78106,10.74627 40.59172,11.9403 C38.27219,12.83582 36.82249,15.8209 37.11243,17.91045 C37.40237,19.40299 38.27219,20 39.7219,20.29851 C42.6213,20.59702 43.78106,17.91045 44.071,16.41791 C44.071,16.41791 44.65089,13.73134 46.68047,12.53731 C49,11.34328 49,8.0597 49,7.76119 Z" id="Fill-2"></path>
            </g>
        </g>
    </g>
</svg>