<svg height='30px' width='30px' fill="#000000" xmlns="http://www.w3.org/2000/svg"
     xmlns:xlink="http://www.w3.org/1999/xlink" version="1.1" x="0px" y="0px" viewBox="0 0 100 100"
     enable-background="new 0 0 100 100" xml:space="preserve">
    <path d="M90.2,75h-4.6L71.1,60h1.6c2.7,0,4.8-2.2,4.8-4.8V44.8c0-2.7-2.2-4.8-4.8-4.8h-4.6L53.6,25h1.6c2.7,0,4.8-2.2,4.8-4.8V9.8  C60,7.2,57.8,5,55.2,5H44.8C42.2,5,40,7.2,40,9.8v10.4c0,2.7,2.2,4.8,4.8,4.8h1.6L31.9,40h-4.6c-2.7,0-4.8,2.2-4.8,4.8v10.4  c0,2.7,2.2,4.8,4.8,4.8h1.6L14.4,75H9.8C7.2,75,5,77.2,5,79.8v10.4C5,92.8,7.2,95,9.8,95h10.4c2.7,0,4.8-2.2,4.8-4.8V79.8  c0-2.7-2.2-4.8-4.8-4.8h-1.6l13.9-14.3L46.4,75h-1.6c-2.7,0-4.8,2.2-4.8,4.8v10.4c0,2.7,2.2,4.8,4.8,4.8h10.4c2.7,0,4.8-2.2,4.8-4.8  V79.8c0-2.7-2.2-4.8-4.8-4.8h-4.6L36.1,60h1.6c2.7,0,4.8-2.2,4.8-4.8V44.8c0-2.7-2.2-4.8-4.8-4.8h-1.6L50,25.6L63.9,40h-1.6  c-2.7,0-4.8,2.2-4.8,4.8v10.4c0,2.7,2.2,4.8,4.8,4.8h4.6l14.6,15h-1.6c-2.7,0-4.8,2.2-4.8,4.8v10.4c0,2.7,2.2,4.8,4.8,4.8h10.4  c2.7,0,4.8-2.2,4.8-4.8V79.8C95,77.2,92.8,75,90.2,75z M22,79.8v10.4c0,1-0.8,1.8-1.8,1.8H9.8c-1,0-1.8-0.8-1.8-1.8V79.8  c0-1,0.8-1.8,1.8-1.8h10.4C21.2,78,22,78.8,22,79.8z M57,79.8v10.4c0,1-0.8,1.8-1.8,1.8H44.8c-1,0-1.8-0.8-1.8-1.8V79.8  c0-1,0.8-1.8,1.8-1.8h10.4C56.2,78,57,78.8,57,79.8z M39.5,44.8v10.4c0,1-0.8,1.8-1.8,1.8H27.3c-1,0-1.8-0.8-1.8-1.8V44.8  c0-1,0.8-1.8,1.8-1.8h10.4C38.7,43,39.5,43.8,39.5,44.8z M43,20.2V9.8c0-1,0.8-1.8,1.8-1.8h10.4c1,0,1.8,0.8,1.8,1.8v10.4  c0,1-0.8,1.8-1.8,1.8H44.8C43.8,22,43,21.2,43,20.2z M60.5,55.2V44.8c0-1,0.8-1.8,1.8-1.8h10.4c1,0,1.8,0.8,1.8,1.8v10.4  c0,1-0.8,1.8-1.8,1.8H62.3C61.3,57,60.5,56.2,60.5,55.2z M92,90.2c0,1-0.8,1.8-1.8,1.8H79.8c-1,0-1.8-0.8-1.8-1.8V79.8  c0-1,0.8-1.8,1.8-1.8h10.4c1,0,1.8,0.8,1.8,1.8V90.2z"/>
</svg>