<?xml version="1.0" encoding="UTF-8"?>
<svg width="41px" height="26px" viewBox="0 0 41 26" version="1.1" xmlns="http://www.w3.org/2000/svg" xmlns:xlink="http://www.w3.org/1999/xlink">
    <title>Group 24</title>
    <g id="Page-1" stroke="none" stroke-width="1" fill="none" fill-rule="evenodd">
        <g id="Artboard" transform="translate(-185.000000, -171.000000)" fill="#000000">
            <g id="Group-24" transform="translate(185.000000, 171.000000)">
                <path d="M39.51449,15.773809 C39.51449,15.773809 38.32609,14.28572 38.32609,12.79762 C38.32609,11.0119 39.51449,9.52381 39.51449,9.52381 C39.51449,9.52381 39.51449,9.52381 39.51449,9.52381 C41,5.95238 40.4058,3.86905 39.51449,2.67857 C38.92029,1.4881 37.73189,0.59524 36.24638,0.29762 C33.86956,0 31.49275,1.4881 31.19565,1.78571 C25.84783,4.7619 22.28261,6.25 20.7971,6.84524 C20.2029,6.84524 19.6087,7.14286 19.31159,7.14286 C0.2971015,7.14286 0.2971015,7.14286 0.2971015,7.14286 C0,7.14286 0,7.14286 0,7.44048 C0,7.7381 0,8.03571 0.2971015,8.03571 C19.31159,8.03571 19.31159,8.03571 19.31159,8.03571 C19.9058,8.03571 20.5,7.7381 21.0942,7.7381 C22.57971,7.14286 26.44203,5.65476 31.78986,2.38095 C31.78986,2.38095 33.86956,0.89286 35.94928,1.19048 C37.13768,1.4881 38.32609,2.08333 38.92029,3.27381 C39.8116,4.46429 39.51449,6.54762 38.62319,8.92857 C38.32609,9.22619 37.43478,10.71429 37.43478,12.79762 C37.43478,14.58333 38.32609,16.071429 38.62319,16.369048 C39.51449,18.75 39.8116,20.833334 38.92029,22.023809 C38.32609,23.214287 37.13768,23.809523 35.94928,24.1071436 C33.86956,24.4047617 31.78986,22.916666 31.78986,22.916666 C26.44203,19.642857 22.57971,18.154762 21.0942,17.559524 C20.5,17.559524 19.9058,17.261905 19.31159,17.261905 C0.2971015,17.261905 0.2971015,17.261905 0.2971015,17.261905 C0,17.261905 0,17.559524 0,17.857143 C0,18.154762 0,18.154762 0.2971015,18.154762 C19.31159,18.154762 19.31159,18.154762 19.31159,18.154762 C19.6087,18.154762 20.2029,18.452381 20.7971,18.452381 C22.28261,19.04762 25.84783,20.535715 31.19565,23.511905 C31.49275,23.809523 33.27536,25 35.35507,25 C35.65217,25 35.94928,25 36.24638,25 C37.73189,24.7023823 38.92029,23.809523 39.51449,22.619048 C40.4058,21.428571 41,19.345239 39.51449,15.773809 C39.51449,15.773809 39.51449,15.773809 39.51449,15.773809 Z" id="Fill-1"></path>
                <path d="M0,14.71429 C0,14.71429 0,15 0.3333334,15 C1.666667,15 1.666667,15 1.666667,15 C2,15 2,14.71429 2,14.71429 C2,14.42857 2,14.14286 1.666667,14.14286 C1,14.14286 1,14.14286 1,14.14286 C1,13.57143 1,13.57143 1,13.57143 C1,13.28571 0.6666667,13 0.3333334,13 C0,13 0,13.28571 0,13.57143 L0,14.71429 Z" id="Fill-2"></path>
                <path d="M0.3333334,12 C0.6666667,12 1,11.71429 1,11.42857 C1,10.85714 1,10.85714 1,10.85714 C1.666667,10.85714 1.666667,10.85714 1.666667,10.85714 C2,10.85714 2,10.57143 2,10.57143 C2,10.28571 2,10 1.666667,10 C0.3333334,10 0.3333334,10 0.3333334,10 C0,10 0,10.28571 0,10.57143 C0,11.42857 0,11.42857 0,11.42857 C0,11.71429 0,12 0.3333334,12 Z" id="Fill-3"></path>
                <path d="M11.6,14 C11.3,14 11,14.33333 11,14.66667 C11,14.66667 11.3,15 11.6,15 C13.7,15 13.7,15 13.7,15 C14,15 14,14.66667 14,14.66667 C14,14.33333 14,14 13.7,14 L11.6,14 Z" id="Fill-4"></path>
                <path d="M13.7,10 C11.6,10 11.6,10 11.6,10 C11.3,10 11,10.33333 11,10.66667 C11,10.66667 11.3,11 11.6,11 C13.7,11 13.7,11 13.7,11 C14,11 14,10.66667 14,10.66667 C14,10.33333 14,10 13.7,10 Z" id="Fill-5"></path>
                <path d="M7.3,14 C7.3,14 7,14.33333 7,14.66667 C7,14.66667 7.3,15 7.3,15 C9.7,15 9.7,15 9.7,15 C9.7,15 10,14.66667 10,14.66667 C10,14.33333 9.7,14 9.7,14 L7.3,14 Z" id="Fill-6"></path>
                <path d="M18.4,10 C16.3,10 16.3,10 16.3,10 C16,10 16,10.33333 16,10.66667 C16,10.66667 16,11 16.3,11 C18.4,11 18.4,11 18.4,11 C18.7,11 19,10.66667 19,10.66667 C19,10.33333 18.7,10 18.4,10 Z" id="Fill-7"></path>
                <path d="M16.3,14 C16,14 16,14.33333 16,14.66667 C16,14.66667 16,15 16.3,15 C18.4,15 18.4,15 18.4,15 C18.7,15 19,14.66667 19,14.66667 C19,14.33333 18.7,14 18.4,14 L16.3,14 Z" id="Fill-8"></path>
                <path d="M5.4,10 C3.3,10 3.3,10 3.3,10 C3,10 3,10.33333 3,10.66667 C3,10.66667 3,11 3.3,11 C5.4,11 5.4,11 5.4,11 C5.7,11 6,10.66667 6,10.66667 C6,10.33333 5.7,10 5.4,10 Z" id="Fill-9"></path>
                <path d="M35.25,15.7 C35.25,15.7 35.5,16 35.5,16 C35.5,16 35.75,16 35.75,16 C35.75,15.7 36,15.7 36,15.4 C35.75,14.5 35.75,13.9 35.75,13.3 C35.75,13 35.5,13 35.25,13 C35,13 35,13 35,13.3 C35,13.9 35,14.8 35.25,15.7 Z" id="Fill-10"></path>
                <path d="M9.7,10 C7.3,10 7.3,10 7.3,10 C7.3,10 7,10.33333 7,10.66667 C7,10.66667 7.3,11 7.3,11 C9.7,11 9.7,11 9.7,11 C9.7,11 10,10.66667 10,10.66667 C10,10.33333 9.7,10 9.7,10 Z" id="Fill-11"></path>
                <path d="M3.3,14 C3,14 3,14.33333 3,14.66667 C3,14.66667 3,15 3.3,15 C5.4,15 5.4,15 5.4,15 C5.7,15 6,14.66667 6,14.66667 C6,14.33333 5.7,14 5.4,14 L3.3,14 Z" id="Fill-12"></path>
                <path d="M35.25,9.4 C35,9.8 35,10.4 35,10.8 C35,11 35,11 35.25,11 C35.25,11 35.25,11 35.25,11 C35.5,11 35.75,11 35.75,10.8 C35.75,10.4 35.75,10 36,9.4 C36,9.2 36,9.2 35.75,9 C35.5,9 35.25,9.2 35.25,9.4 Z" id="Fill-13"></path>
                <path d="M22.4,10 C20.3,10 20.3,10 20.3,10 C20,10 20,10.33333 20,10.66667 C20,10.66667 20,11 20.3,11 C22.4,11 22.4,11 22.4,11 C22.7,11 23,10.66667 23,10.66667 C23,10.33333 22.7,10 22.4,10 Z" id="Fill-14"></path>
                <path d="M33.4,4.28571 C32.8,4.28571 32.2,4.57143 31.3,5.14286 C31.3,5.14286 31,5.42857 31.3,5.71429 C31.3,5.71429 31.6,6 31.6,6 C31.6,6 31.9,6 31.9,5.71429 C32.5,5.42857 33.1,5.14286 33.7,4.85714 C34,4.85714 34,4.57143 34,4.57143 C34,4.28571 33.7,4 33.4,4.28571 Z" id="Fill-15"></path>
                <path d="M28.66667,16.25 C28.66667,16 28.33333,16 28,16.25 C28,16.5 28,16.75 28,16.75 C28.33333,17 28.33333,17 28.33333,17 C28.33333,17 29,17.5 30,17.75 C30,18 30.33333,18 30.33333,18 C30.66667,18 30.66667,17.75 30.66667,17.75 C31,17.5 31,17.25 30.66667,17.25 C29.66667,16.75 29,16.5 29,16.5 L28.66667,16.25 Z" id="Fill-16"></path>
                <path d="M36.2,4.3 C36.2,4.3 35.8,4 35.4,4.3 C35.4,4.3 35,4.6 35.4,4.9 C35.8,5.2 35.8,5.5 35.8,5.8 C35.8,6.1 35.8,6.4 35.8,6.7 C35.8,7 35.8,7 36.2,7 C36.2,7 36.2,7 36.2,7 C36.6,7 37,7 37,6.7 C37,6.4 37,6.1 37,5.8 C37,5.2 36.6,4.6 36.2,4.3 Z" id="Fill-17"></path>
                <path d="M35.4,20 C35.8,20 35.8,20 35.8,20 C36.2,20 36.2,20 36.2,20 C36.6,19.7 37,19.1 37,18.5 C37,18.2 37,17.9 37,17.6 C36.6,17.3 36.6,17 36.2,17.3 C35.8,17.3 35.8,17.3 35.8,17.6 C35.8,17.9 35.8,18.2 35.8,18.5 C35.8,18.8 35.8,19.1 35.4,19.4 C35,19.7 35.4,20 35.4,20 Z" id="Fill-18"></path>
                <path d="M31.9,18.285714 C31.6,18 31.3,18.285714 31.3,18.285714 C31,18.571429 31.3,18.857143 31.3,18.857143 C32.2,19.428571 32.8,19.714286 33.4,20 C33.4,20 33.4,20 33.7,20 C33.7,20 34,19.714286 34,19.714286 C34,19.428571 34,19.142857 33.7,19.142857 C33.1,18.857143 32.5,18.571429 31.9,18.285714 Z" id="Fill-19"></path>
                <path d="M26.4,9.16667 C25.5,9.33333 24.9,9.5 24.3,9.5 C24,9.5 24,9.66667 24,9.83333 C24,10 24.3,10 24.6,10 C24.6,10 24.6,10 24.6,10 C25.2,10 26.1,9.83333 26.7,9.5 C27,9.5 27,9.33333 27,9.16667 C26.7,9.16667 26.4,9 26.4,9.16667 Z" id="Fill-20"></path>
                <path d="M20.3,14 C20.3,14 20,14.33333 20,14.66667 C20,14.66667 20.3,15 20.3,15 C22.7,15 22.7,15 22.7,15 C22.7,15 23,14.66667 23,14.66667 C23,14.33333 22.7,14 22.7,14 L20.3,14 Z" id="Fill-21"></path>
                <path d="M30.1,6.375 C29.2,7.125 28.6,7.5 28.6,7.5 C28.6,7.5 28.6,7.875 28.3,7.875 C28.3,7.875 28,8.25 28.3,8.625 C28.3,8.625 28.6,9 28.6,9 C28.9,9 28.9,9 28.9,8.625 C28.9,8.625 29.2,8.625 29.2,8.625 C29.2,8.625 29.8,7.875 30.7,7.125 C31,7.125 31,6.75 30.7,6.375 C30.7,6 30.4,6 30.1,6.375 Z" id="Fill-22"></path>
                <path d="M24.6,14 C24.3,14 24,14 24,14.33333 C24,14.66667 24,15 24.3,15 C24.9,15 25.5,15.333333 26.4,15.666667 C26.4,16 26.4,16 26.4,16 C26.7,16 26.7,15.666667 27,15.666667 C27,15.333333 27,15 26.7,15 C26.1,14.66667 25.2,14.33333 24.6,14 Z" id="Fill-23"></path>
            </g>
        </g>
    </g>
</svg>