<?xml version="1.0" encoding="UTF-8"?>
<svg width="41px" height="35px" viewBox="0 0 41 35" version="1.1" xmlns="http://www.w3.org/2000/svg" xmlns:xlink="http://www.w3.org/1999/xlink">
    <title>Group 3</title>
    <g id="Page-1" stroke="none" stroke-width="1" fill="none" fill-rule="evenodd">
        <g id="Artboard" transform="translate(-44.000000, -90.000000)" fill="#000000">
            <g id="Group-3" transform="translate(44.000000, 90.000000)">
                <path d="M40.12143,16.31356 C39.82857,16.01695 39.82857,15.72034 40.12143,15.42373 C41,13.05085 40.12143,10.67797 37.77857,9.49153 C37.48571,9.19492 37.19286,8.89831 37.19286,8.60169 C36.60714,6.22881 35.43571,4.74576 33.09286,4.15254 C32.50714,3.85593 31.33571,3.26271 31.04286,2.66949 C29.87143,1.48305 28.40714,0.88983 26.65,1.48305 C26.65,1.48305 26.35714,1.48305 26.35714,1.48305 C26.06429,1.48305 26.06429,1.48305 25.77143,1.48305 C25.18571,0.59322 24.30714,0.29661 23.42857,0.29661 C22.25714,1.08246745e-15 21.37857,0.29661 20.5,0.88983 C20.5,1.18644 20.20714,1.18644 19.91429,0.88983 C18.45,0.29661 16.69286,0.29661 15.22857,0.88983 C14.35,1.18644 13.76429,1.77966 12.88572,2.37288 C12.88572,2.66949 12.59286,2.66949 12.3,2.66949 C10.54286,2.37288 9.078572,2.9661 8.2,3.85593 C7.907143,4.74576 7.028572,5.04237 6.442858,5.04237 C4.392857,5.33898 2.635714,7.71186 2.635714,9.78814 C2.635714,10.08475 2.342857,10.38136 2.05,10.67797 C1.171429,11.27119 0.8785715,12.16102 0.5857143,13.05085 C-2.77555756e-17,14.83051 -2.77555756e-17,16.90678 1.171429,18.68644 C2.05,20.4661 3.514286,21.65254 5.564286,22.24576 C6.15,22.54237 6.735714,22.54237 7.321429,22.54237 C7.614286,22.54237 7.614286,22.54237 7.614286,22.54237 C8.2,22.54237 9.078572,22.54237 9.664286,22.54237 C9.664286,22.54237 9.957143,22.83898 9.957143,22.83898 C10.25,22.83898 10.25,22.54237 10.54286,22.54237 C11.71429,24.91525 14.05714,26.101696 16.4,25.508475 C19.91429,25.211866 22.55,25.211866 24.30714,33.813561 C24.30714,33.813561 24.30714,34.1101703 24.6,34.4067795 C24.6,34.7033913 24.6,34.7033913 24.6,34.7033913 C24.6,35 24.89286,35 24.89286,35 C25.47857,35 25.47857,35 25.47857,35 C26.06429,35 26.35714,35 26.65,35 C27.23571,35 27.82143,35 28.40714,35 C28.40714,35 28.7,34.7033913 28.7,34.7033913 C28.99286,33.813561 28.7,32.923728 28.7,32.33051 C28.7,31.737289 28.40714,31.144068 28.40714,30.847459 C28.7,30.847459 28.99286,30.550847 29.28571,30.550847 C29.57857,30.550847 29.57857,30.550847 29.57857,30.550847 C30.16429,30.847459 30.45714,30.847459 30.75,30.550847 C33.97143,29.957628 36.31429,27.584747 36.60714,24.32204 C36.60714,24.02542 36.60714,24.02542 36.9,23.72881 C36.9,23.4322 36.9,23.4322 36.9,23.13559 C38.65714,22.54237 39.53571,21.35593 40.12143,19.57627 C40.41429,18.38983 40.41429,17.20339 40.12143,16.31356 Z M39.24286,19.27966 C38.95,21.05932 37.77857,21.94915 36.31429,22.24576 C36.31429,22.24576 36.31429,22.24576 36.31429,22.24576 C36.31429,22.24576 36.31429,22.24576 36.31429,22.24576 C36.02143,22.24576 36.02143,22.54237 36.02143,22.83898 C36.02143,23.13559 36.02143,23.4322 36.02143,23.72881 C35.72857,23.72881 35.72857,24.02542 35.72857,24.02542 C35.43571,26.991526 33.38571,29.067798 30.45714,29.661017 C30.45714,29.957628 30.16429,29.957628 29.57857,29.957628 C29.57857,29.661017 29.57857,29.661017 29.28571,29.661017 C28.99286,29.661017 28.7,29.957628 28.40714,29.957628 C27.82143,29.364407 27.82143,29.364407 27.82143,29.364407 C27.82143,29.364407 27.52857,29.364407 27.23571,29.364407 C27.23571,29.661017 27.23571,29.957628 27.23571,30.254238 C27.82143,30.550847 27.82143,30.550847 27.82143,30.550847 C27.52857,31.144068 27.82143,31.737289 27.82143,32.33051 C27.82143,32.923728 27.82143,33.516949 27.82143,34.1101703 C27.23571,34.1101703 26.35714,34.1101703 25.47857,34.1101703 C25.18571,34.1101703 25.18571,34.1101703 25.18571,34.1101703 C25.18571,33.813561 25.18571,33.813561 25.18571,33.516949 C23.42857,24.32204 19.91429,24.02542 16.4,24.61864 C14.35,24.91525 12.3,24.02542 11.12857,21.94915 C11.12857,21.65254 10.83571,18.98305 13.76429,18.09322 C14.05714,18.09322 14.35,17.79661 14.05714,17.5 C14.05714,17.5 13.76429,17.20339 13.47143,17.20339 C12.00714,17.79661 11.12857,18.38983 10.54286,19.57627 C10.25,20.4661 10.25,21.35593 10.25,21.65254 C9.957143,21.94915 9.957143,21.94915 9.957143,21.94915 C9.078572,21.65254 8.492858,21.65254 7.614286,21.65254 C7.028572,21.65254 7.028572,21.65254 7.028572,21.65254 C6.735714,21.65254 6.15,21.65254 5.857143,21.35593 C4.1,21.05932 2.635714,19.87288 1.757143,18.38983 C0.8785715,16.61017 0.8785715,15.12712 1.464286,13.34746 C1.464286,12.45763 1.757143,11.86441 2.342857,11.5678 C3.221429,10.97458 3.514286,10.38136 3.514286,9.78814 C3.514286,8.00847 4.978571,6.22881 6.442858,5.9322 C7.321429,5.63559 8.2,5.63559 9.078572,4.44915 C9.664286,3.55932 10.83571,3.26271 12.3,3.55932 C12.3,3.55932 12.59286,3.55932 12.59286,3.55932 C12.59286,3.55932 12.59286,3.85593 12.59286,3.85593 C12.59286,3.85593 12.59286,3.85593 12.59286,4.15254 C12.59286,4.44915 12.88572,4.44915 13.17857,4.44915 C13.17857,4.44915 13.17857,4.44915 13.17857,4.44915 C13.47143,4.44915 13.47143,4.44915 13.47143,4.15254 C13.76429,3.85593 13.47143,3.55932 13.47143,3.55932 C13.47143,3.26271 13.47143,3.26271 13.47143,3.26271 C13.47143,3.26271 13.47143,3.26271 13.76429,2.9661 C14.35,2.37288 14.93572,2.07627 15.52143,1.77966 C16.98572,1.18644 18.15714,1.18644 19.62143,1.77966 C19.91429,1.77966 20.5,2.07627 21.08571,1.77966 C21.67143,1.18644 22.55,1.18644 23.42857,1.18644 C24.30714,1.18644 24.89286,1.48305 25.18571,2.07627 C24.89286,2.07627 24.89286,2.07627 24.89286,2.07627 C24.30714,2.9661 23.42857,3.85593 23.42857,5.33898 C23.42857,5.63559 23.13571,5.63559 23.13571,5.63559 C23.13571,5.9322 23.13571,5.9322 23.13571,5.9322 C23.13571,6.22881 23.42857,6.22881 23.72143,6.22881 C24.01429,6.52542 24.01429,6.22881 24.01429,5.9322 C24.01429,5.9322 24.01429,5.9322 24.01429,5.9322 C24.01429,5.63559 24.30714,5.63559 24.30714,5.33898 C24.30714,4.44915 24.89286,3.55932 25.77143,2.66949 C25.77143,2.66949 25.77143,2.66949 25.77143,2.66949 C26.06429,2.37288 26.06429,2.37288 26.35714,2.37288 C26.65,2.37288 26.65,2.37288 26.94286,2.37288 C28.11429,1.77966 29.28571,2.37288 30.45714,3.26271 C30.75,3.85593 32.21429,4.74576 32.8,5.04237 C34.85,5.63559 36.02143,6.82203 36.31429,8.89831 C36.60714,9.49153 36.9,10.08475 37.48571,10.38136 C39.24286,11.27119 39.82857,13.34746 39.24286,15.12712 C38.95,15.42373 38.95,16.01695 39.24286,16.61017 C39.53571,17.5 39.53571,18.38983 39.24286,19.27966 Z" id="Fill-1"></path>
                <path d="M34.69903,12.24324 C34.39806,12.24324 34.09709,12.24324 34.09709,12.54054 C34.09709,12.54054 33.79612,12.83784 33.79612,13.13514 C32.8932,14.32432 31.68932,14.91892 30.78641,15.21622 C30.78641,15.21622 30.78641,15.21622 30.78641,15.21622 C30.48544,14.91892 30.18447,14.32432 29.88349,13.72973 C28.67961,12.54054 26.87379,12.24324 25.6699,11.94595 C25.6699,11.64865 25.6699,11.64865 25.6699,11.64865 C25.6699,11.05405 25.6699,10.45946 25.6699,10.16216 C25.97087,8.97297 26.87379,8.37838 27.17476,8.08108 C27.47573,7.78378 27.47573,7.48649 27.47573,7.48649 C27.17476,7.18919 26.87379,7.18919 26.57282,7.18919 C25.97087,7.78378 25.36893,8.67568 24.76699,9.86487 C24.76699,10.45946 24.76699,11.05405 24.76699,11.64865 C24.16505,11.64865 23.86408,11.64865 23.56311,11.64865 C22.96117,11.64865 22.66019,11.64865 22.35922,11.35135 C21.15534,10.45946 20.5534,8.97297 20.5534,8.37838 C20.25243,7.78378 20.25243,7.18919 20.25243,6.59459 C20.25243,6.2973 19.95146,6 19.95146,6 C19.95146,6 19.95146,6 19.95146,6 C19.65049,6 19.34951,6.2973 19.34951,6.2973 C19.34951,7.18919 19.34951,7.78378 19.65049,8.37838 C19.65049,8.37838 19.34951,8.37838 19.34951,8.37838 C19.04854,8.67568 18.74757,8.97297 18.4466,8.97297 C16.03884,10.16216 12.72816,7.78378 12.42718,7.48649 C12.12621,7.48649 11.82524,7.48649 11.82524,7.78378 C11.52427,7.78378 11.82524,8.08108 11.82524,8.37838 C12.12621,8.37838 13.02913,8.97297 13.93204,9.56757 C13.93204,9.56757 13.93204,9.56757 13.93204,9.56757 C13.3301,11.94595 12.42718,13.43243 11.52427,14.02703 C10.92233,13.43243 10.32039,12.83784 9.718447,12.24324 C9.116505,11.64865 8.213592,11.35135 7.31068,11.05405 C7.009709,11.05405 6.708738,11.35135 6.708738,11.64865 C6.708738,11.94595 6.708738,11.94595 7.009709,11.94595 C7.611651,12.24324 8.514563,12.24324 9.116505,13.13514 C9.718447,13.43243 10.32039,14.02703 10.62136,14.32432 C10.32039,14.62162 10.01942,14.62162 9.417476,14.62162 C9.116505,14.62162 8.514563,14.62162 7.912622,14.62162 C6.106796,14.91892 5.203884,15.81081 4.300971,16.7027 C4.300971,17 4.300971,17 4.300971,17 C4,17 4,17.2973 4.300971,17.59459 C4.300971,17.59459 4.300971,17.59459 4.601942,17.59459 C4.601942,17.59459 4.601942,17.59459 4.902913,17.59459 C5.203884,17.2973 5.203884,17.2973 5.203884,17.2973 C5.504854,17 5.805825,16.7027 6.106796,16.40541 C6.106796,17.2973 6.106796,19.08108 7.611651,19.37838 C7.611651,19.37838 7.611651,19.37838 7.611651,19.37838 C7.912622,19.37838 7.912622,19.37838 7.912622,19.08108 C8.213592,19.08108 7.912622,18.78378 7.912622,18.48649 C6.708738,18.18919 7.009709,17 7.31068,15.81081 C7.611651,15.81081 7.611651,15.51351 7.912622,15.51351 C8.514563,15.51351 9.116505,15.51351 9.417476,15.51351 C10.01942,15.51351 10.32039,15.51351 10.92233,15.21622 C12.42718,14.91892 13.93204,13.13514 14.83495,9.86487 C14.83495,9.86487 14.83495,9.86487 14.83495,9.86487 C15.43689,10.16216 16.03884,10.16216 16.94175,10.16216 C17.54369,10.16216 18.14563,10.16216 19.04854,9.86487 C19.34951,9.56757 19.65049,9.56757 19.95146,9.27027 C20.25243,10.16216 20.5534,11.35135 21.75728,11.94595 C21.75728,11.94595 21.75728,11.94595 21.75728,11.94595 C21.45631,12.83784 20.85437,13.72973 20.85437,14.91892 C20.5534,14.91892 20.5534,14.62162 20.25243,14.62162 C19.95146,14.62162 18.74757,14.62162 17.84466,15.21622 C17.24272,15.51351 16.94175,16.10811 16.33981,16.40541 C16.33981,16.7027 16.33981,17 16.64078,17 C16.64078,17.2973 16.64078,17.2973 16.94175,17.2973 C16.94175,17.2973 17.24272,17 17.24272,17 C17.54369,16.7027 17.84466,16.40541 18.14563,16.10811 C19.04854,15.51351 19.95146,15.51351 20.25243,15.51351 C20.5534,15.51351 20.5534,15.51351 20.5534,15.51351 C20.5534,15.51351 20.5534,15.51351 20.5534,15.51351 C20.5534,17.89189 21.75728,19.67568 22.35922,20.27027 C22.66019,20.56757 22.66019,20.56757 22.66019,20.56757 C22.96117,20.56757 22.96117,20.56757 22.96117,20.27027 C23.26214,20.27027 23.26214,19.97297 23.26214,19.67568 C22.66019,19.37838 21.45631,17.59459 21.45631,15.51351 C21.75728,14.02703 22.05825,13.13514 22.66019,12.24324 C22.96117,12.54054 23.26214,12.54054 23.56311,12.54054 C23.86408,12.54054 24.46602,12.54054 25.06796,12.54054 C26.57282,12.83784 28.07767,13.13514 28.98058,14.32432 C29.88349,15.51351 30.18447,16.7027 30.18447,18.18919 C30.18447,18.18919 30.18447,18.18919 30.18447,18.18919 C29.58252,17.89189 28.07767,17.2973 26.57282,18.18919 C25.97087,18.48649 25.36893,19.08108 25.06796,19.67568 C25.06796,19.97297 25.06796,20.27027 25.36893,20.27027 C25.36893,20.27027 25.36893,20.27027 25.36893,20.27027 C25.6699,20.27027 25.6699,20.27027 25.97087,20.27027 C26.27185,19.67568 26.57282,19.37838 26.87379,19.08108 C28.07767,18.48649 29.58252,18.78378 29.88349,18.78378 C29.88349,18.78378 29.88349,18.78378 30.18447,18.78378 C29.88349,19.08108 29.88349,19.37838 29.88349,19.67568 C29.88349,19.97297 29.58252,19.97297 29.58252,20.27027 C29.28155,20.86486 29.28155,21.45946 28.37864,21.45946 C26.57282,22.35135 25.6699,23.54054 25.36893,24.43243 C24.76699,25.621622 25.06796,27.108108 25.36893,27.702702 C25.6699,28 25.6699,28 25.97087,28 C25.97087,28 25.97087,28 25.97087,28 C26.27185,28 26.27185,27.702702 26.27185,27.405406 C25.97087,26.810812 25.6699,25.918919 26.27185,24.72973 C26.57282,23.54054 27.47573,22.94595 28.67961,22.35135 C28.98058,22.35135 28.98058,22.35135 29.28155,22.35135 C29.28155,22.35135 29.28155,22.35135 29.28155,22.35135 C30.18447,22.35135 31.38835,22.64865 31.68932,23.83784 C31.99029,24.43243 31.99029,25.027028 31.99029,25.324325 C31.99029,25.324325 31.99029,25.621622 32.29126,25.621622 C32.29126,25.621622 32.29126,25.621622 32.29126,25.621622 C32.59223,25.621622 32.8932,25.621622 32.8932,25.324325 C32.8932,25.027028 32.8932,24.43243 32.59223,23.54054 C32.29126,22.64865 31.38835,21.75676 29.88349,21.45946 C30.18447,21.16216 30.48544,20.86486 30.48544,20.56757 C30.48544,20.27027 30.48544,20.27027 30.78641,19.97297 C31.08738,19.08108 31.38835,17.59459 31.08738,16.10811 C31.08738,16.10811 31.08738,16.10811 31.08738,16.10811 C31.99029,15.81081 33.49515,15.21622 34.39806,13.72973 C34.69903,13.43243 34.69903,13.13514 35,12.83784 C35,12.54054 35,12.24324 34.69903,12.24324 Z" id="Fill-2"></path>
            </g>
        </g>
    </g>
</svg>