<?xml version="1.0" encoding="UTF-8"?>
<svg width="40px" height="32px" viewBox="0 0 40 32" version="1.1" xmlns="http://www.w3.org/2000/svg" xmlns:xlink="http://www.w3.org/1999/xlink">
    <title>Fill 1</title>
    <g id="Page-1" stroke="none" stroke-width="1" fill="none" fill-rule="evenodd">
        <g id="Artboard" transform="translate(-130.000000, -217.000000)" fill="#000000">
            <path d="M167.94118,218.658947 C167.94118,218.358947 167.64706,218.358947 167.35294,218.058947 C167.35294,218.058947 167.35294,218.058947 167.35294,218.058947 C167.35294,218.058947 167.35294,218.058947 167.35294,218.058947 C167.05882,218.058947 166.76471,217.758947 166.47059,217.758947 C165,217.158947 162.94118,216.558947 160.58824,217.458947 C160.29412,217.458947 155.58824,220.458947 150,220.458947 C144.70588,220.458947 139.705882,217.458947 139.705882,217.458947 C137.352941,216.558947 135,217.158947 133.529412,217.758947 C133.235294,217.758947 132.941177,218.058947 132.647059,218.058947 C132.647059,218.058947 132.647059,218.058947 132.647059,218.058947 C132.647059,218.358947 132.352941,218.358947 132.058824,218.658947 C130.882353,219.558947 130,221.358947 130,223.458947 C130,231.558947 130,231.558947 130,231.558947 C130,231.858947 130.294118,231.858947 130.294118,231.858947 C130.294118,232.158947 130.588235,232.458947 131.176471,232.458947 C131.470588,232.158947 131.764706,232.158947 132.058824,231.558947 C132.352941,230.958947 133.82353,228.558947 134.117647,228.258947 C135.294118,227.058947 136.176471,226.158947 136.764706,226.158947 C135.294118,227.358947 130.588235,231.258947 130.294118,238.458947 C130.294118,242.958947 132.647059,245.658947 134.117647,246.858947 C135.882353,248.358947 138.235294,248.958947 140.29412,248.958947 C141.76471,248.958947 143.52941,248.658947 144.70588,247.758947 C149.11765,244.758947 149.11765,237.858947 149.11765,235.758947 C149.11765,235.158947 149.41176,234.258947 149.70588,233.658947 C149.70588,233.658947 150,233.658947 150,233.658947 C150,233.658947 150.29412,233.658947 150.29412,233.958947 C150.88235,234.258947 150.88235,235.158947 150.88235,236.058947 C150.88235,237.858947 150.88235,244.758947 155.29412,247.758947 C158.52941,249.558947 162.64706,249.258947 165.88235,246.858947 C167.35294,245.658947 170,242.958947 169.70588,238.458947 C169.41176,231.258947 164.70588,227.358947 163.2353,226.158947 C163.82353,226.158947 165,227.058947 165.88235,228.258947 C165.88235,228.258947 165.88235,228.258947 165.88235,228.258947 C166.47059,228.558947 167.94118,230.958947 168.2353,231.558947 C168.52941,232.158947 168.82353,232.158947 168.82353,232.458947 C169.41176,232.458947 169.70588,232.158947 170,231.858947 C170,231.858947 170,231.858947 170,231.558947 C170,223.458947 170,223.458947 170,223.458947 C170,221.358947 169.41176,219.558947 167.94118,218.658947 Z M169.11765,231.558947 C169.11765,231.558947 169.11765,231.558947 169.11765,231.558947 C169.11765,231.558947 169.11765,231.258947 169.11765,231.258947 C168.52941,230.658947 167.05882,228.258947 166.47059,227.658947 C165.29412,226.158947 163.2353,224.658947 162.35294,225.258947 C162.35294,225.258947 161.76471,225.558947 162.05882,226.158947 C162.05882,226.158947 162.05882,226.458947 162.35294,226.458947 C162.35294,226.458947 168.52941,230.658947 168.82353,238.458947 C169.11765,242.658947 166.76471,245.058947 165.58824,245.958947 C164.41176,246.858947 162.94118,247.758947 161.47059,247.758947 C162.64706,247.458947 163.52941,246.558947 163.52941,245.358947 C163.52941,243.858947 162.35294,242.658947 160.882353,242.658947 C159.41176,242.658947 158.2353,243.858947 158.2353,245.358947 C158.2353,246.858947 159.41176,248.058947 160.882353,248.058947 C160.882353,248.058947 160.882353,248.058947 161.17647,248.058947 C159.11765,248.358947 157.35294,247.758947 155.882353,246.858947 C151.76471,244.158947 151.76471,237.858947 151.76471,236.058947 C151.76471,235.458947 151.76471,233.658947 150.882353,233.058947 C150.58824,232.758947 150.29412,232.758947 150,232.758947 C149.41176,232.758947 149.11765,233.058947 149.11765,233.058947 C149.11765,233.058947 149.11765,233.058947 149.11765,233.058947 C148.52941,233.658947 148.23529,235.158947 148.23529,235.758947 C148.23529,237.858947 148.23529,244.158947 144.41176,246.858947 C142.64706,247.758947 140.882353,248.358947 139.117647,248.058947 C140.58824,248.058947 141.76471,246.858947 141.76471,245.358947 C141.76471,243.858947 140.58824,242.658947 139.117647,242.658947 C137.941176,242.658947 136.764706,243.858947 136.764706,245.358947 C136.764706,246.558947 137.352941,247.458947 138.529412,247.758947 C137.058824,247.758947 135.882353,246.858947 134.705883,245.958947 C133.235294,245.058947 131.176471,242.658947 131.176471,238.458947 C131.470588,230.658947 137.941176,226.458947 137.941176,226.458947 C137.941176,226.458947 137.941176,226.158947 138.235294,226.158947 C138.235294,225.558947 137.941176,225.258947 137.647059,225.258947 C136.764706,224.658947 134.705883,226.158947 133.529412,227.658947 C132.941177,228.258947 131.470588,230.658947 131.176471,231.258947 C131.176471,231.258947 131.176471,231.558947 131.176471,231.558947 C131.176471,231.558947 131.176471,231.558947 130.882353,231.558947 C130.882353,223.458947 130.882353,223.458947 130.882353,223.458947 C130.882353,221.658947 131.470588,220.158947 132.647059,219.258947 C132.941177,219.258947 132.941177,218.958947 133.235294,218.958947 C133.235294,218.958947 133.235294,218.958947 133.235294,218.958947 C133.235294,218.958947 133.235294,218.958947 133.235294,218.958947 C133.529412,218.658947 133.529412,218.658947 133.82353,218.658947 C135.294118,218.058947 137.058824,217.458947 139.117647,218.358947 C139.117647,218.358947 144.41176,221.358947 150,221.358947 C155.882353,221.358947 160.882353,218.358947 160.882353,218.358947 C162.94118,217.458947 165,218.058947 166.17647,218.658947 C166.47059,218.658947 166.76471,218.658947 167.05882,218.958947 C167.05882,218.958947 167.05882,218.958947 167.05882,218.958947 C167.05882,218.958947 167.35294,219.258947 167.64706,219.258947 C168.52941,220.158947 169.11765,221.658947 169.11765,223.458947 L169.11765,231.558947 Z M160.88235,247.158947 C160,247.158947 159.11765,246.258947 159.11765,245.358947 C159.11765,244.458947 160,243.558947 160.88235,243.558947 C161.76471,243.558947 162.64706,244.458947 162.64706,245.358947 C162.64706,246.258947 161.76471,247.158947 160.88235,247.158947 Z M137.647059,245.358947 C137.647059,244.458947 138.235294,243.558947 139.117647,243.558947 C140,243.558947 140.88235,244.458947 140.88235,245.358947 C140.88235,246.258947 140,247.158947 139.117647,247.158947 C138.235294,247.158947 137.647059,246.258947 137.647059,245.358947 Z" id="Fill-1"></path>
        </g>
    </g>
</svg>