<?xml version="1.0" encoding="UTF-8"?>
<svg width="41px" height="40px" viewBox="0 0 41 40" version="1.1" xmlns="http://www.w3.org/2000/svg" xmlns:xlink="http://www.w3.org/1999/xlink">
    <title>Fill 1</title>
    <g id="Page-1" stroke="none" stroke-width="1" fill="none" fill-rule="evenodd">
        <g id="Artboard" transform="translate(-215.000000, -105.000000)" fill="#000000">
            <path d="M256,117.14815 C256,115.96296 256,114.77778 254.80292,114.48148 C255.40146,114.18519 255.70073,113.2963 255.70073,112.11111 C255.70073,110.33333 255.10219,109.74074 254.50365,109.74074 C254.50365,108.85185 254.80292,107.07407 253.90511,105.88889 C253.30657,105.2963 252.40876,105 251.21168,105 C249.71533,105 248.81752,105.2963 248.21898,106.18519 C247.91971,106.18519 247.62044,106.48148 247.62044,106.77778 C247.0219,106.18519 246.42336,106.18519 245.22628,106.18519 C243.43066,106.18519 241.93431,107.07407 241.63504,108.55556 C241.0365,107.96296 240.13869,107.37037 238.64234,107.37037 C237.44526,107.37037 236.54745,107.66667 235.94891,108.25926 C235.94891,108.25926 235.94891,108.25926 235.94891,108.25926 C235.35037,107.66667 234.45255,106.77778 232.9562,106.77778 C232.9562,106.77778 232.9562,106.77778 232.9562,106.77778 C232.9562,106.77778 232.35766,106.77778 231.75912,107.37037 C231.45985,107.66667 231.16058,107.96296 231.16058,108.25926 C230.86131,107.66667 229.9635,107.07407 229.06569,106.77778 C228.46715,106.77778 227.56934,106.77778 226.9708,107.07407 C226.67153,106.18519 225.77372,105.2963 224.277372,105.2963 C223.379562,105.2963 222.781022,105.88889 222.481752,106.48148 C221.883212,105.88889 220.985402,105.2963 219.489051,105.2963 C217.094891,105.2963 215.59854,107.07407 215.59854,109.74074 C215.59854,110.62963 215.59854,111.22222 216.19708,111.51852 C216.19708,111.81481 216.49635,111.81481 216.49635,111.81481 C215.59854,112.40741 215,113.2963 215,114.48148 C215,116.25926 216.19708,117.44444 217.094891,118.03704 C216.49635,118.62963 215.89781,119.51852 215.89781,121.2963 C215.89781,123.07407 217.094891,123.96296 217.992701,124.55556 C217.394161,125.14815 216.79562,126.33333 216.79562,128.11111 C216.79562,130.77778 219.189781,131.66667 220.686131,131.66667 C220.386862,132.55556 220.087591,133.44444 220.386862,134.33333 C220.985402,135.222222 221.883212,135.814816 223.678832,135.814816 C223.678832,135.814816 225.47445,135.814816 226.37226,136.703704 C227.27007,137.296297 228.46715,137.296297 229.66423,136.111113 C229.9635,135.814816 230.26277,135.222222 230.26277,134.33333 C229.9635,133.74074 229.36496,132.85185 227.86861,132.25926 C227.86861,132.25926 227.56934,132.25926 227.56934,132.25926 C227.56934,132.25926 226.9708,132.25926 226.67153,131.96296 C226.67153,131.96296 226.67153,131.96296 226.67153,131.66667 C226.67153,131.66667 226.67153,131.37037 226.67153,131.07408 C226.9708,129.88889 227.27007,127.81482 224.875912,126.92593 C225.17518,126.62963 225.47445,125.44444 225.17518,124.55556 C225.17518,123.96296 224.576643,123.37037 224.277372,122.77778 C224.875912,122.48148 226.07299,121.2963 226.07299,119.81481 C226.07299,118.03704 225.17518,117.14815 224.277372,116.85185 C224.875912,116.55556 225.17518,116.25926 225.17518,115.66667 C225.17518,115.07407 224.875912,114.18519 224.277372,113.59259 C224.277372,113.59259 223.978102,113.59259 223.978102,113.59259 C224.875912,113.59259 225.47445,113.59259 225.77372,113.2963 C226.07299,113.88889 226.37226,114.18519 226.9708,114.48148 C227.86861,115.07407 229.06569,114.77778 229.9635,114.77778 C230.26277,116.55556 231.75912,116.85185 232.9562,116.85185 C234.15329,116.85185 234.75182,116.55556 235.35037,115.96296 C235.94891,116.85185 236.84672,117.74074 238.34307,117.74074 C239.83942,117.74074 240.73723,116.55556 241.0365,115.66667 C241.63504,116.25926 242.53285,116.85185 244.0292,116.85185 C244.32847,116.85185 244.62774,116.85185 244.92701,116.85185 C244.62774,117.44444 244.92701,118.03704 245.22628,118.33333 C245.82482,119.22222 246.42336,119.81481 247.0219,120.11111 C246.72263,120.40741 246.72263,120.7037 246.72263,121.2963 C246.72263,122.18519 247.32117,122.77778 247.62044,123.37037 C247.32117,123.66667 247.0219,124.25926 247.0219,124.85185 C244.92701,125.74074 244.92701,128.11111 244.92701,129 C244.62774,129 244.32847,129.2963 244.32847,129.2963 C243.72993,129.59259 243.43066,129.88889 243.43066,130.48148 C242.23358,129.88889 239.83942,129.59259 235.64964,133.44444 C230.86131,138.481482 231.16058,144.407407 231.16058,144.703704 C231.16058,145 231.45985,145 231.45985,145 C231.45985,145 231.45985,145 231.45985,145 C231.75912,145 232.05839,144.703704 232.05839,144.703704 C232.05839,144.407407 231.75912,138.777779 236.54745,134.03704 C241.0365,129.59259 243.13139,131.37037 243.13139,131.37037 C243.43066,131.37037 243.43066,131.66667 243.72993,131.37037 C243.72993,131.37037 244.0292,131.37037 244.0292,131.07408 C244.0292,131.07408 244.32847,130.18518 244.62774,130.18518 C244.62774,129.88889 244.92701,129.88889 245.22628,130.18518 C245.22628,130.18518 245.52555,130.18518 245.52555,129.88889 C245.52555,129.88889 245.82482,129.88889 245.82482,129.59259 C245.82482,129.59259 245.52555,126.33333 247.91971,125.44444 C247.91971,125.44444 248.21898,125.14815 248.21898,124.85185 C248.21898,124.85185 247.91971,123.96296 248.51825,123.96296 C248.51825,123.66667 248.81752,123.66667 248.81752,123.37037 C248.81752,123.37037 248.81752,123.07407 248.51825,123.07407 C248.21898,122.77778 247.62044,121.88889 247.62044,121.2963 C247.62044,120.7037 247.91971,120.40741 248.21898,120.40741 C248.51825,120.40741 248.81752,120.11111 248.81752,120.11111 C248.81752,119.81481 248.81752,119.51852 248.51825,119.51852 C248.51825,119.51852 246.72263,119.22222 245.82482,118.03704 C245.82482,117.44444 245.52555,117.14815 245.82482,116.55556 C246.42336,115.96296 246.72263,115.37037 247.0219,114.77778 C247.62044,115.07407 248.51825,115.66667 250.0146,115.66667 C250.31387,115.66667 250.91241,115.37037 251.21168,115.07407 C252.10949,113.88889 251.81022,111.51852 251.81022,111.22222 C251.51095,110.92593 251.51095,110.62963 251.21168,110.62963 C250.91241,110.62963 250.61314,110.92593 250.91241,111.22222 C250.91241,112.11111 250.91241,113.88889 250.31387,114.48148 C250.31387,114.48148 250.0146,114.77778 250.0146,114.77778 C247.32117,114.77778 247.32117,113.59259 247.32117,113 C247.32117,113 247.32117,112.7037 247.0219,112.7037 C246.72263,112.7037 246.42336,113 246.42336,113 C246.42336,113.2963 246.42336,114.77778 245.52555,115.37037 C245.52555,115.37037 245.52555,115.37037 245.52555,115.37037 C245.22628,115.37037 244.92701,115.66667 244.92701,115.66667 C244.92701,115.96296 244.92701,115.96296 244.92701,115.96296 C244.62774,115.96296 244.32847,115.96296 244.0292,115.96296 C241.93431,115.96296 241.33577,114.48148 241.33577,114.48148 C241.33577,114.48148 241.0365,114.18519 240.73723,114.18519 C240.73723,114.18519 240.43796,114.48148 240.43796,114.48148 C240.43796,114.48148 239.83942,116.85185 238.34307,116.85185 C236.54745,116.85185 235.94891,115.66667 235.94891,114.48148 C235.94891,114.48148 235.94891,114.18519 235.64964,114.18519 C235.35037,114.18519 235.35037,114.18519 235.0511,114.48148 C235.0511,114.48148 234.75182,115.96296 232.9562,115.96296 C231.45985,115.96296 230.86131,115.37037 230.86131,114.18519 C230.86131,113.88889 230.86131,113.88889 230.56204,113.59259 C230.56204,113.59259 230.26277,113.59259 230.26277,113.59259 C229.66423,113.88889 228.16788,114.48148 227.27007,113.88889 C226.9708,113.59259 226.67153,113.2963 226.67153,112.40741 C226.67153,112.40741 226.37226,112.11111 226.37226,112.11111 C226.07299,112.11111 226.07299,112.11111 225.77372,112.11111 C225.77372,112.40741 223.978102,113.88889 221.284672,111.51852 C221.284672,111.22222 221.284672,111.22222 221.284672,111.22222 C221.284672,110.92593 220.985402,110.62963 220.985402,110.62963 C220.686131,110.62963 220.386862,110.92593 220.386862,111.22222 C220.386862,111.22222 220.386862,111.51852 220.386862,111.51852 C220.386862,111.51852 220.386862,111.81481 220.386862,111.81481 C220.686131,113.59259 222.481752,114.48148 223.678832,114.48148 C223.978102,114.77778 224.277372,115.07407 224.277372,115.37037 C224.277372,115.96296 223.379562,116.55556 223.080292,116.55556 C222.781022,116.55556 222.781022,116.85185 222.781022,117.14815 C222.781022,117.14815 222.781022,117.44444 223.080292,117.44444 C224.277372,117.44444 225.17518,118.33333 225.17518,119.81481 C225.17518,121.59259 223.080292,122.48148 223.080292,122.48148 C223.080292,122.48148 222.781022,122.48148 222.781022,122.77778 C222.781022,122.77778 222.781022,123.07407 223.080292,123.07407 C223.678832,123.66667 224.277372,124.25926 224.277372,124.85185 C224.576643,126.03704 223.678832,126.92593 223.678832,126.92593 C223.678832,127.22222 223.678832,127.22222 223.678832,127.51852 C223.678832,127.51852 223.978102,127.81482 223.978102,127.81482 C226.07299,128.11111 226.07299,129.2963 225.77372,131.07408 C225.77372,131.37037 225.77372,131.66667 225.77372,131.66667 C225.77372,132.25926 225.77372,132.55556 226.07299,132.55556 C226.67153,133.14815 227.27007,133.14815 227.56934,133.14815 C228.46715,133.44444 229.06569,134.03704 229.36496,134.62963 C229.36496,134.92593 229.06569,135.518519 229.06569,135.518519 C227.86861,136.703704 227.27007,136.111113 226.9708,135.814816 C225.77372,134.92593 223.678832,134.92593 223.678832,134.92593 C222.781022,134.92593 221.583941,134.62963 221.284672,134.03704 C220.985402,133.14815 221.583941,131.96296 221.883212,131.66667 C221.883212,131.37037 221.883212,131.37037 221.883212,131.07408 C221.883212,131.07408 221.583941,131.07408 221.284672,131.07408 C221.284672,131.07408 217.693431,130.77778 217.693431,128.11111 C217.693431,125.44444 219.189781,124.85185 219.189781,124.85185 C219.189781,124.85185 219.489051,124.55556 219.489051,124.25926 C219.489051,124.25926 219.189781,123.96296 219.189781,123.96296 C218.890511,123.96296 216.79562,123.37037 216.79562,121.2963 C216.79562,118.92593 217.992701,118.33333 217.992701,118.33333 C218.291971,118.33333 218.291971,118.03704 218.291971,117.74074 C218.291971,117.74074 217.992701,117.44444 217.992701,117.44444 C217.992701,117.44444 215.89781,116.85185 215.89781,114.48148 C215.89781,112.40741 217.693431,112.11111 217.992701,112.11111 C218.291971,112.11111 218.291971,111.81481 218.291971,111.81481 C218.291971,111.51852 217.992701,111.22222 217.992701,111.22222 C217.992701,111.22222 217.094891,111.22222 216.79562,110.92593 C216.49635,110.62963 216.49635,110.33333 216.49635,109.74074 C216.49635,107.96296 217.394161,106.18519 219.489051,106.18519 C221.583941,106.18519 221.883212,107.96296 221.883212,107.96296 C222.182482,108.25926 222.182482,108.25926 222.481752,108.25926 C222.781022,108.25926 222.781022,107.96296 222.781022,107.96296 C222.781022,107.66667 223.080292,106.18519 224.277372,106.18519 C225.77372,106.18519 226.07299,107.66667 226.07299,107.66667 C226.37226,107.96296 226.37226,107.96296 226.37226,107.96296 C226.67153,107.96296 226.67153,107.96296 226.9708,107.96296 C227.56934,107.66667 228.16788,107.66667 229.06569,107.66667 C230.26277,107.96296 231.16058,109.44444 231.16058,109.44444 C231.16058,109.74074 231.45985,109.74074 231.45985,109.74074 C231.75912,109.74074 231.75912,109.44444 231.75912,109.44444 C231.75912,108.85185 232.05839,108.25926 232.35766,107.96296 C232.65693,107.66667 232.9562,107.66667 232.9562,107.66667 C235.0511,107.66667 235.35037,109.44444 235.35037,109.74074 C235.35037,110.03704 235.35037,110.03704 235.35037,110.03704 C235.35037,110.33333 235.64964,110.33333 235.94891,110.33333 C236.24817,110.33333 236.24817,110.03704 236.24817,110.03704 C236.24817,109.74074 236.24817,109.74074 236.24817,109.74074 C236.24817,109.74074 236.24817,109.14815 236.54745,108.85185 C237.14598,108.55556 237.74453,108.25926 238.64234,108.25926 C241.0365,108.25926 241.33577,110.03704 241.33577,110.33333 C241.33577,110.33333 241.33577,110.62963 241.63504,110.62963 C241.63504,110.62963 241.63504,110.62963 241.63504,110.62963 C241.93431,110.62963 242.23358,110.33333 242.23358,110.33333 C242.23358,108.85185 242.53285,107.07407 245.22628,107.07407 C246.12409,107.07407 246.72263,107.07407 247.0219,107.37037 C247.32117,107.66667 247.32117,107.96296 247.32117,107.96296 C247.32117,108.25926 247.32117,108.25926 247.32117,108.25926 C247.32117,108.55556 247.62044,108.55556 247.91971,108.55556 C247.91971,108.55556 247.91971,108.55556 247.91971,108.55556 C248.21898,108.55556 248.21898,108.55556 248.21898,108.25926 C248.21898,108.25926 248.21898,107.96296 248.21898,107.96296 C248.21898,107.66667 248.51825,107.07407 248.81752,106.77778 C249.41606,106.18519 250.0146,105.88889 251.21168,105.88889 C252.10949,105.88889 252.70803,106.18519 253.0073,106.48148 C253.90511,107.66667 253.60584,109.74074 253.60584,109.74074 C253.30657,110.03704 253.60584,110.03704 253.60584,110.33333 C253.60584,110.33333 253.90511,110.33333 253.90511,110.33333 C253.90511,110.33333 254.80292,110.33333 254.80292,112.11111 C254.80292,113.88889 253.60584,114.48148 253.60584,114.48148 C253.30657,114.48148 253.30657,114.77778 253.30657,115.07407 C253.30657,115.07407 253.60584,115.37037 253.60584,115.37037 C254.80292,115.37037 255.10219,115.66667 255.10219,117.14815 C255.10219,118.33333 253.0073,118.33333 253.0073,118.33333 C252.70803,118.33333 252.70803,118.62963 252.70803,118.92593 C252.70803,118.92593 252.70803,119.22222 253.0073,119.22222 C253.90511,119.51852 253.90511,120.7037 253.90511,122.77778 C253.90511,123.07407 253.90511,123.37037 253.90511,123.66667 C253.90511,125.74074 251.81022,126.33333 251.81022,126.33333 C251.81022,126.33333 251.51095,126.62963 251.51095,126.92593 C251.51095,126.92593 251.81022,127.22222 251.81022,127.22222 C252.10949,127.22222 253.90511,127.51852 253.90511,129 C253.90511,130.48148 251.21168,130.77778 251.21168,130.77778 C251.21168,130.77778 250.91241,130.77778 250.91241,131.07408 C250.91241,131.07408 250.91241,131.37037 250.91241,131.37037 C251.81022,132.85185 250.91241,134.03704 250.91241,134.03704 C250.61314,134.33333 250.0146,134.62963 249.71533,134.62963 C248.51825,134.33333 247.91971,133.14815 247.91971,133.14815 C247.62044,132.85185 247.32117,132.85185 247.32117,133.14815 C247.0219,133.14815 247.0219,133.44444 247.0219,133.74074 C247.32117,134.62963 247.32117,135.814816 247.0219,136.407407 C246.72263,136.703704 246.42336,137 245.82482,137 C244.32847,137.296297 243.13139,135.222222 243.13139,135.222222 C243.13139,135.222222 242.83212,134.92593 242.83212,135.222222 C242.53285,135.222222 242.53285,135.222222 242.53285,135.518519 C242.23358,136.111113 241.93431,136.703704 241.33577,136.703704 C240.13869,137 238.94161,136.111113 238.94161,136.111113 C238.94161,136.111113 238.64234,136.111113 238.64234,136.111113 C234.45255,137.888888 233.55474,144.407407 233.55474,144.407407 C233.55474,144.703704 233.85401,145 234.15329,145 C234.15329,145 234.15329,145 234.15329,145 C234.45255,145 234.45255,145 234.45255,144.703704 C234.45255,144.703704 235.35037,138.777779 238.64234,137 C239.24088,137.296297 240.43796,137.888888 241.63504,137.592594 C242.23358,137.296297 242.53285,137 242.83212,136.407407 C243.43066,137 244.62774,138.185185 245.82482,137.888888 C246.72263,137.888888 247.32117,137.592594 247.91971,137 C248.21898,136.407407 248.21898,135.518519 248.21898,134.92593 C248.51825,135.222222 249.11679,135.222222 249.41606,135.518519 C250.31387,135.518519 250.91241,135.222222 251.51095,134.62963 C252.10949,134.03704 252.70803,132.85185 252.10949,131.66667 C253.0073,131.37037 254.80292,130.48148 254.80292,129 C254.80292,127.81482 253.90511,127.22222 253.0073,126.62963 C253.90511,126.03704 254.80292,125.14815 254.80292,123.66667 C254.80292,123.37037 254.80292,123.07407 254.80292,122.77778 C254.80292,121.2963 254.80292,119.81481 254.20438,119.22222 C255.10219,118.92593 256,118.33333 256,117.14815 Z" id="Fill-1"></path>
        </g>
    </g>
</svg>