<?xml version="1.0" encoding="UTF-8"?>
<svg width="33px" height="36px" viewBox="0 0 33 36" version="1.1" xmlns="http://www.w3.org/2000/svg" xmlns:xlink="http://www.w3.org/1999/xlink">
    <title>Group 4</title>
    <g id="Page-1" stroke="none" stroke-width="1" fill="none" fill-rule="evenodd">
        <g id="Artboard" transform="translate(-32.000000, -179.000000)">
            <g id="Group-4" transform="translate(32.000000, 179.000000)">
                <path d="M32.41071,20.2689517 C32.11607,19.3763817 31.52679,18.1863017 30.9375,16.9962217 C29.75893,15.2110917 28.58036,12.8309317 28.58036,12.2358917 C28.28571,9.26068173 27.40179,0.930101726 16.79464,0.0375417258 C12.66964,-0.259978274 8.25,1.22762173 5.008929,3.90531173 C1.767857,6.88052173 -1.13686838e-13,10.7482817 -1.13686838e-13,15.2110917 C-1.13686838e-13,15.5086217 -1.13686838e-13,15.5086217 -1.13686838e-13,15.5086217 C-1.13686838e-13,19.0788617 2.357143,22.6491117 5.598214,26.8144017 C6.1875,28.0044857 6.482143,31.5747317 6.482143,34.5499387 C6.482143,34.8474607 6.482143,35.1449804 6.776786,35.4425025 C7.071429,35.7400217 7.366072,35.7400217 7.366072,35.7400217 C20.91964,35.7400217 20.91964,35.7400217 20.91964,35.7400217 C21.50893,35.7400217 22.09821,35.1449804 22.09821,34.5499387 C22.09821,32.1697737 22.09821,32.1697737 22.09821,32.1697737 C22.98214,32.4672957 25.04464,32.4672957 26.8125,31.2772117 C27.99107,30.3846507 28.58036,29.1945667 28.875,27.4094437 C29.16964,25.0292817 29.16964,23.8391917 29.16964,23.2441517 C30.64286,23.2441517 30.64286,23.2441517 30.64286,23.2441517 C31.52679,23.2441517 32.11607,22.9466317 32.41071,22.3515917 C32.70536,21.7565517 33,20.8639917 32.41071,20.2689517 Z M31.82143,21.7565517 C31.52679,22.0540717 30.9375,22.3515917 30.64286,22.3515917 C28.58036,22.3515917 28.58036,22.3515917 28.58036,22.3515917 C28.58036,22.3515917 28.28571,22.6491117 28.28571,22.9466317 C28.28571,22.9466317 28.28571,23.8391917 27.99107,27.1119217 C27.99107,28.8970477 27.40179,29.7896087 26.22321,30.6821707 C24.45536,31.8722537 21.80357,31.2772117 21.80357,31.2772117 C21.50893,31.2772117 21.50893,31.2772117 21.21429,31.2772117 C21.21429,31.2772117 21.21429,31.5747317 21.21429,31.5747317 C21.21429,34.5499387 21.21429,34.5499387 21.21429,34.5499387 C21.21429,34.8474607 20.91964,34.8474607 20.91964,34.8474607 C7.366072,34.8474607 7.366072,34.8474607 7.366072,34.8474607 C7.366072,34.8474607 7.366072,34.8474607 7.366072,34.8474607 C7.366072,34.8474607 7.366072,34.8474607 7.366072,34.5499387 C7.366072,32.1697737 7.366072,27.7069637 6.1875,26.2193597 C2.946429,22.0540717 0.8839286,19.0788617 0.8839286,15.5086217 C0.8839286,15.2110917 0.8839286,15.2110917 0.8839286,15.2110917 C0.8839286,11.0458117 2.651786,7.47556173 5.598214,4.50035173 C8.25,2.12019173 11.78571,0.930101726 15.61607,0.930101726 C15.91072,0.930101726 16.20536,0.930101726 16.79464,0.930101726 C26.51786,1.82266173 27.40179,9.26068173 27.69643,12.2358917 C27.69643,13.1284517 28.58036,14.9135717 30.05357,17.5912617 C30.64286,18.4838217 31.23214,19.6739017 31.82143,20.5664717 C31.82143,20.8639917 31.82143,21.4590317 31.82143,21.7565517 Z" id="Fill-1" fill="#000000"></path>
                <path d="M27.99107,27.1119217 C22.9989791,23.612101 19.1271122,22.5747938 16.3754691,24 C13.6238261,25.4252062 12.5173627,29.0410265 13.056079,34.8474607" id="Path-2" stroke="#000000" stroke-width="2" stroke-linecap="round" stroke-linejoin="round"></path>
            </g>
        </g>
    </g>
</svg>