<?xml version="1.0" encoding="UTF-8"?>
<svg width="40px" height="17px" viewBox="0 0 40 17" version="1.1" xmlns="http://www.w3.org/2000/svg" xmlns:xlink="http://www.w3.org/1999/xlink">
    <title>Group 3</title>
    <g id="Page-1" stroke="none" stroke-width="1" fill="none" fill-rule="evenodd">
        <g id="Artboard" transform="translate(-87.000000, -190.000000)" fill="#000000">
            <g id="Group-3" transform="translate(87.000000, 190.000000)">
                <path d="M14,8.5 C14,6.01472 15.79086,4 18,4 C20.20914,4 22,6.01472 22,8.5 C22,10.985281 20.20914,13 18,13 C15.79086,13 14,10.985281 14,8.5 Z" id="Fill-1"></path>
                <path d="M39.7037,9.965517 C37.62963,7.913793 35.85185,6.44828 33.77778,4.98276 C32.59259,4.10345 31.11111,3.51724 29.92593,2.93103 C24.88889,0.58621 19.55556,-4.4408921e-16 14.22222,0.87931 C10.37037,1.46552 6.814815,2.63793 3.555556,4.68966 C3.555556,4.98276 3.555556,4.98276 3.259259,4.98276 C3.259259,4.98276 2.962963,5.27586 2.962963,5.27586 C2.666667,5.56897 2.074074,5.86207 1.777778,6.15517 C1.777778,6.15517 1.777778,6.15517 1.777778,6.15517 C1.185185,6.44828 0.8888889,6.74138 0.5925926,7.034483 C0.5925926,7.327586 0.2962963,7.62069 0.2962963,7.913793 C0.2962963,7.913793 0,7.913793 0,7.913793 C0,7.913793 0,7.913793 0,7.913793 C0,8.206897 0,8.5 0.2962963,9.086207 C5.62963,15.534483 13.03704,17 18.96296,17 C20.44444,17 21.92593,16.7068974 23.40741,16.7068974 C29.92593,15.827586 36.44444,12.896552 37.62963,9.965517 C37.62963,9.672414 37.62963,9.379311 37.62963,9.379311 C38.22222,9.672414 38.51852,9.965517 39.11111,10.551724 C39.11111,10.551724 39.40741,10.551724 39.40741,10.551724 C39.40741,10.551724 39.7037,10.551724 39.7037,10.551724 C40,10.258621 40,9.965517 39.7037,9.965517 Z M11.25926,8.793104 C11.25926,4.68966 14.51852,1.46552 18.66667,1.46552 C22.51852,1.46552 25.77778,4.68966 25.77778,8.793104 C25.77778,12.603449 22.51852,15.827586 18.66667,15.827586 C14.51852,15.827586 11.25926,12.603449 11.25926,8.793104 Z M0.8888889,8.5 C0.8888889,8.5 0.8888889,8.5 0.8888889,8.206897 C1.185185,7.913793 1.481481,7.62069 2.074074,7.034483 C2.074074,7.034483 2.074074,7.034483 2.37037,7.034483 C2.962963,6.44828 3.555556,5.86207 4.444445,5.27586 C6.814815,3.81034 10.37037,2.34483 14.51852,1.75862 C12.14815,3.22414 10.37037,5.86207 10.37037,8.793104 C10.37037,11.724138 12.14815,14.36207 14.51852,15.827586 C9.777778,14.948277 4.740741,13.189656 0.8888889,8.5 Z M35.85185,7.913793 C36.14815,7.913793 36.14815,8.206897 36.44444,8.206897 C36.44444,8.206897 36.44444,8.206897 36.44444,8.206897 C36.74074,8.793104 37.03704,9.086207 36.74074,9.672414 C35.85185,11.724138 30.22222,14.948277 23.11111,15.827586 C23.11111,15.827586 22.81482,15.827586 22.51852,15.827586 C24.88889,14.36207 26.66667,11.724138 26.66667,8.793104 C26.66667,5.56897 25.18518,3.22414 22.81482,1.75862 C26.07408,2.34483 29.62963,3.51724 33.48148,5.86207 C34.07408,6.44828 34.96296,7.034483 35.85185,7.913793 Z" id="Fill-2"></path>
            </g>
        </g>
    </g>
</svg>