<?xml version="1.0" encoding="UTF-8"?>
<svg width="36px" height="30px" viewBox="0 0 36 30" version="1.1" xmlns="http://www.w3.org/2000/svg" xmlns:xlink="http://www.w3.org/1999/xlink">
    <title>noun_fly_719984</title>
    <g id="Page-1" stroke="none" stroke-width="1" fill="none" fill-rule="evenodd">
        <g id="Artboard" transform="translate(-284.000000, -160.000000)" fill="#000000" fill-rule="nonzero">
            <g id="noun_fly_719984" transform="translate(302.060550, 174.938384) rotate(89.000000) translate(-302.060550, -174.938384) translate(288.060550, 157.938384)">
                <g id="Group" transform="translate(0.069353, 0.052966)">
                    <path d="M0.857758846,31.1415277 C0.866191154,31.1532014 0.871669038,31.1665767 0.880257115,31.1781937 C1.55692904,32.0933766 2.43034269,32.5682157 3.42545365,32.5682157 C3.56058346,32.5682157 3.69799788,32.5596562 3.83718808,32.5420322 C4.01466115,32.5196231 4.19403462,32.4785845 4.374135,32.4293011 C4.39901135,32.4240778 4.42265192,32.4165239 4.44645346,32.4077428 C6.33639635,31.8556734 8.34369577,29.9110659 10.0284698,27.8358506 C10.0354742,27.8272912 10.0426344,27.8196755 10.0490988,27.8107036 C10.9285356,26.7252923 11.7183115,25.6087528 12.3564825,24.6395325 C12.6572625,24.889193 13.0618056,25.1367136 13.4992419,25.1367136 C13.9371196,25.1367136 14.3420106,24.8885948 14.6428529,24.6386508 C15.2814029,25.6084383 16.0718175,26.7258853 16.9519137,27.8120236 C16.9576512,27.8199539 16.9640221,27.8267189 16.9702321,27.8343347 C18.655894,29.9108391 20.6644292,31.8569264 22.5552912,32.4083358 C22.5783294,32.4167405 22.6011185,32.4240417 22.6251381,32.4291361 C22.8053994,32.4784814 22.9849598,32.519618 23.1625575,32.5420219 C23.3019969,32.5596459 23.4394113,32.5682157 23.5742919,32.5682157 C24.5691485,32.5682157 25.4428113,32.0933662 26.119234,31.1781834 C26.1276663,31.1667933 26.1330508,31.1536345 26.1413221,31.1421464 C26.1450606,31.1361342 26.1487679,31.1305345 26.1522571,31.1243677 C29.8590975,25.9198397 18.7008646,12.0544875 17.4336248,10.5115158 C17.4302654,10.4089219 17.4322281,10.3032703 17.4242112,10.2033783 C17.6387625,10.1990367 17.8370204,10.0635202 17.9073762,9.84973687 C17.9966215,9.57908531 17.8480488,9.28803562 17.575759,9.19941516 C17.4682938,9.16441969 17.3422558,9.12907875 17.2159062,9.10056469 C17.1831998,8.99007141 17.1571812,8.87475703 17.1173769,8.76957984 L18.37134,7.95038062 C18.477315,7.88088984 18.5543896,7.77515062 18.5873504,7.65329297 C18.6056065,7.58556562 19.0234212,6.0034425 18.6669588,4.20656156 C18.9286044,3.06705094 19.4143656,1.39026422 19.7327994,1.02519656 C19.9204131,0.809933437 19.8970892,0.484393594 19.68057,0.297835312 C19.464056,0.111524531 19.136494,0.134438906 18.9478679,0.349949531 C18.3307725,1.05717047 17.7410613,3.58922437 17.629001,4.08974156 C17.612775,4.16200125 17.612775,4.23702469 17.6284921,4.30953703 C17.9007819,5.57266875 17.7151985,6.75976125 17.6254494,7.20313172 L16.6206756,7.8595275 C16.5663225,7.78374609 16.5166321,7.70396344 16.4570192,7.63305984 C16.7739369,7.30180172 17.1346154,6.78312422 17.1346154,6.11221875 C17.1346154,5.19313266 16.7286808,4.13538469 15.0393738,3.74485547 L15.3654767,3.054975 C15.3979287,2.98649484 15.4146583,2.91171891 15.4146583,2.8359375 L15.4146583,1.82080078 C15.4146583,1.53604687 15.1824323,1.30517578 14.8954275,1.30517578 C14.6084383,1.30517578 14.3761967,1.53604687 14.3761967,1.82080078 L14.3761967,2.72088094 L13.9600021,3.60144469 C13.8122238,3.59379797 13.6611485,3.58797656 13.5,3.58797656 C13.3388204,3.58797656 13.1877762,3.59379797 13.0399979,3.60144469 L12.6237877,2.72088094 L12.6237877,1.82080078 C12.6237877,1.53604687 12.3913073,1.30517578 12.1045569,1.30517578 C11.8178221,1.30517578 11.5853262,1.53604687 11.5853262,1.82080078 L11.5853262,2.8359375 C11.5853262,2.91171891 11.6020662,2.98649484 11.6345181,3.054975 L11.960621,3.74482453 C10.2711946,4.13532281 9.86538462,5.19310172 9.86538462,6.11221875 C9.86538462,6.78309328 10.2260319,7.30177078 10.5429444,7.63303406 C10.470086,7.71964359 10.4090504,7.81682859 10.344079,7.91067234 L8.93948712,7.21345969 C8.98740692,6.66737156 9.10909904,5.5260975 9.37175712,4.30954219 C9.387225,4.237035 9.38697058,4.16200641 9.37074462,4.08974672 C9.25893865,3.58922953 8.6692275,1.05717562 8.05187769,0.349954687 C7.86400962,0.134438906 7.53619846,0.111782344 7.31943,0.297840469 C7.10266154,0.484403906 7.07933769,0.81019125 7.26695135,1.02520172 C7.58513077,1.38976406 8.07064269,3.06529266 8.33254269,4.20505594 C7.97227442,5.920365 7.88049519,7.42494328 7.87694885,7.48939641 C7.86477808,7.69534219 7.97734731,7.88870156 8.16293077,7.98084891 L9.86513538,8.82594797 C9.83322346,8.91375375 9.81113538,9.00873187 9.78406788,9.10018828 C9.65724058,9.12873328 9.53069365,9.164265 9.42247038,9.19941516 C9.14992615,9.28804078 9.00160788,9.57933797 9.09085327,9.84998953 C9.16165038,10.06434 9.36048462,10.200233 9.57563308,10.2038836 C9.56761615,10.3036467 9.56957885,10.4091694 9.56621942,10.5116705 C8.29840846,12.0553692 -2.86023462,25.9211906 0.847649423,31.1250586 C0.850879038,31.1307666 0.854300769,31.1359589 0.857758846,31.1415277 Z M3.90598615,31.4808192 C3.83930654,31.4942873 3.77202462,31.5108131 3.70636269,31.5190889 C2.98744615,31.6104164 2.38765673,31.3583634 1.87394019,30.7597177 C2.35577596,29.2180969 4.00778135,25.7634661 5.76018519,22.2790012 C5.48389731,25.0497328 4.91646635,29.3058098 3.90598615,31.4808192 Z M5.23585038,30.9368709 C5.7622725,29.403562 6.14669019,27.3963886 6.42047019,25.5005283 C7.22054769,25.4106445 8.38625192,25.3546889 8.78382173,25.4939798 C8.83269173,25.5111656 8.88219,25.5168891 8.93128327,25.5193125 C8.95612846,26.1267394 9.00522173,26.7339755 9.08263904,27.3354881 C7.86547385,28.8106087 6.51146019,30.1835119 5.23585038,30.9368709 Z M10.0084067,26.1637509 C9.87999577,24.3837361 9.98609538,22.5659259 10.1941823,20.9033962 C10.6886925,21.7123655 11.3933821,22.8165661 11.9142277,23.4319542 C11.4034915,24.2288991 10.7473552,25.1882039 10.0084067,26.1637509 Z M13.4992419,24.1054687 C13.361921,24.1054687 13.128641,23.9481103 12.9221429,23.7585305 C12.9294017,23.7469186 12.935835,23.7363431 12.9430263,23.7247931 C12.9499996,23.7176156 12.9596937,23.7150994 12.966319,23.7074217 C13.0137923,23.652188 13.0467219,23.5897509 13.0669408,23.524447 C13.2302804,23.2589569 13.3767554,23.0147723 13.4999377,22.8033455 C13.6232498,23.014958 13.7698546,23.259457 13.9334123,23.5251998 C13.9536623,23.5902202 13.9866231,23.6523736 14.0339354,23.7074166 C14.0403687,23.7148416 14.0497823,23.7173011 14.0565323,23.7242827 C14.0638535,23.7360544 14.0704113,23.7468155 14.0777948,23.7586491 C13.8786802,23.9413453 13.6423887,24.1054687 13.4992419,24.1054687 Z M16.9918477,26.1642562 C16.2528369,25.1886164 15.5966071,24.2292445 15.0858035,23.4322069 C15.6068412,22.8166589 16.3120344,21.7116436 16.806581,20.9024836 C17.0145381,22.5648895 17.1204819,24.3830452 16.9918477,26.1642562 Z M17.9175479,27.3358645 C17.9949704,26.7342281 18.0440273,26.1268322 18.0688413,25.5192816 C18.1178671,25.5168581 18.1673394,25.5111295 18.2161731,25.4939798 C18.6143088,25.3553489 19.7806154,25.4107992 20.5799037,25.5006211 C20.8537148,27.3966052 21.2381948,29.4039075 21.7646221,30.9372473 C20.4889552,30.1840172 19.1348429,28.8110831 17.9175479,27.3358645 Z M23.2933829,31.5190889 C23.2279079,31.5108131 23.1608181,31.4943544 23.0943306,31.4809481 C22.0842969,29.3066916 21.5164817,25.0503309 21.2398823,22.2793209 C22.9924108,25.7640075 24.6442915,29.218762 25.1257483,30.7599755 C24.6118033,31.3582397 24.010586,31.6090345 23.2933829,31.5190889 Z M17.3272656,12.0283144 C20.7364933,16.3398778 26.7891248,25.2090712 25.7651135,29.4815142 C23.9701483,24.9500316 18.0662763,13.8723389 17.2654356,12.3747473 C17.2892371,12.2579273 17.3083448,12.1431183 17.3272656,12.0283144 Z M16.7940935,13.6964798 C17.4612583,14.9534756 18.6804225,17.2653216 19.9920981,19.8235537 C20.0221408,20.3050959 20.1511592,22.2049523 20.4367933,24.4474673 C19.8140279,24.3868247 18.7563288,24.318592 18.0893821,24.4627917 C18.0786081,19.7867948 16.803694,15.3615258 16.454745,14.2388812 C16.5783998,14.0688797 16.6900188,13.885838 16.7940935,13.6964798 Z M16.5737112,19.3214897 C16.5406881,19.3536544 16.5057335,19.3838339 16.4815217,19.4255634 C15.9572544,20.3291653 15.0897652,21.7311136 14.5082267,22.4995495 C14.304356,22.1567981 14.1539815,21.8852597 14.0616623,21.7004958 C14.5011237,20.4638311 14.9869835,17.8689328 14.2117512,16.1915789 C14.5852962,15.9757177 15.1173935,15.6268252 15.6384,15.1462317 C15.88626,16.02447 16.2687773,17.5198237 16.5737112,19.3214897 Z M16.0935888,5.98586484 C15.7249558,5.79156187 15.2790923,5.43986953 15.1971369,4.86381844 C15.9779458,5.16402562 16.0808158,5.67058594 16.0935888,5.98586484 Z M12.8567613,4.64786437 C13.0529942,4.63102406 13.262156,4.61922656 13.5,4.61922656 C13.7379063,4.61922656 13.9471667,4.63099828 14.1434619,4.64786437 C14.120486,5.81925609 14.9400554,6.56229234 15.6924052,6.94000828 C15.6339969,6.99939281 15.57765,7.05214125 15.5321446,7.08984375 L13.5,7.08984375 L11.4690288,7.08984375 C11.4238662,7.05204844 11.3675192,6.99883078 11.3091473,6.93912656 C12.0611804,6.56118891 12.8795763,5.81840531 12.8567613,4.64786437 Z M11.8030552,4.86375656 C11.7210375,5.43970969 11.2750754,5.7915 10.9064112,5.98583391 C10.9191842,5.670555 11.0220854,5.16395859 11.8030552,4.86375656 Z M11.4953331,8.12109375 L13.5,8.12109375 L15.5044125,8.12109375 C15.8854033,8.49666984 16.1419448,9.00713344 16.283134,9.61081687 C16.2833885,9.61377656 16.2819294,9.61641656 16.2822462,9.61937625 C16.2840219,9.63602578 16.2928333,9.64933922 16.2959694,9.6654525 C16.463141,10.4272781 16.4453002,11.3369231 16.2168387,12.3480637 C15.8414504,14.0095828 14.11101,15.0746681 13.5,15.4045495 C13.3478187,15.3223795 13.1283865,15.1954533 12.8752667,15.0240595 C12.1120442,14.5072383 11.0648025,13.595768 10.7829121,12.3480586 C10.7259629,12.0958458 10.6842894,11.851125 10.652471,11.6117255 C10.4515494,10.1003203 10.7455171,8.86051031 11.4953331,8.12109375 Z M11.3621037,15.1467061 C12.085361,15.8136773 12.8303637,16.2266105 13.1393527,16.3826747 C13.9360708,17.6297859 13.5036138,20.3259891 13.0185433,21.5291072 C12.9555398,21.6855839 12.7711921,22.0296914 12.4917992,22.4993639 C11.9102608,21.7308661 11.0432181,20.3290725 10.5189819,19.4255686 C10.4948637,19.3839628 10.4600025,19.354005 10.4271404,19.3219331 C10.731986,17.5206745 11.1143423,16.0251919 11.3621037,15.1467061 Z M10.2057508,13.6964489 C10.3099188,13.885905 10.4215379,14.0690395 10.5452602,14.2390772 C10.1963371,15.3619692 8.92130365,19.7871145 8.91068538,24.4629206 C8.24393077,24.3190045 7.18642385,24.3871392 6.5634975,24.4476272 C6.84925615,22.203885 6.97827462,20.3031159 7.00822385,19.8228009 C8.31976442,17.2648472 9.53871058,14.9533467 10.2057508,13.6964489 Z M9.67263577,12.0290053 C9.69152538,12.1435617 9.71057077,12.258082 9.73430481,12.3746855 C8.93333942,13.8721172 3.02959212,24.9502533 1.23478269,29.4814833 C0.210589615,25.209262 6.26306019,16.3407853 9.67263577,12.0290053 Z" id="Shape"></path>
                    <path d="M12.0209037,10.8175495 C12.0754125,10.8356789 12.1311883,10.8444909 12.1856971,10.8444909 C12.4029744,10.8444909 12.6052927,10.7080308 12.6780525,10.4922623 C12.7224208,10.3605872 12.8550167,10.0750805 12.9282854,9.92628141 C13.0537835,9.67023234 12.9467908,9.36156375 12.6892056,9.23668453 C12.432124,9.11231062 12.1210425,9.21830766 11.9947863,9.47410406 C11.972475,9.519675 11.7737083,9.92628141 11.6933365,10.1649591 C11.6023206,10.4348578 11.7488631,10.7271656 12.0209037,10.8175495 Z" id="Path"></path>
                    <path d="M12.1712469,11.9155214 C12.1461473,11.952533 11.9225354,12.2851214 11.7995712,12.5366381 C11.6745819,12.7929398 11.7823327,13.1013558 12.0401723,13.2257348 C12.1131865,13.2607303 12.1905156,13.2773489 12.2665777,13.2773489 C12.459259,13.2773489 12.6443388,13.1703464 12.7340879,12.9868045 C12.8111625,12.8286933 12.9762104,12.5749078 13.0332531,12.490567 C13.1929788,12.254153 13.1298508,11.9339034 12.8917835,11.7750342 C12.6526985,11.6159123 12.3307183,11.6791073 12.1712469,11.9155214 Z" id="Path"></path>
                    <path d="M14.3204262,10.4922623 C14.3929367,10.7080308 14.5957587,10.8444909 14.8127815,10.8444909 C14.8675448,10.8444909 14.9228117,10.8356789 14.977575,10.8175495 C15.2493612,10.7271656 15.3964073,10.4348578 15.3051369,10.1649642 C15.224516,9.92628656 15.025744,9.51968016 15.0034379,9.47410922 C14.8787031,9.21906562 14.569901,9.11181047 14.3092731,9.23668969 C14.0516775,9.36156891 13.9446952,9.6702375 14.0704477,9.92628656 C14.1434619,10.0750805 14.2758035,10.3605872 14.3204262,10.4922623 Z" id="Path"></path>
                    <path d="M14.2240829,12.8697267 C14.2763123,13.1119313 14.4918138,13.2773438 14.7311429,13.2773438 C14.7671463,13.2773438 14.8036535,13.2738169 14.8406694,13.2657628 C15.1210748,13.2060947 15.2995604,12.9321689 15.2392206,12.6537108 C15.2022046,12.4817498 15.0592137,12.2272116 14.813794,11.8971394 C14.643424,11.6677791 14.3189048,11.6189339 14.087681,11.7881208 C13.8569608,11.9570602 13.8077844,12.2798259 13.9781544,12.5089388 C14.0770367,12.6423773 14.2073481,12.8402691 14.2240829,12.8697267 Z" id="Path"></path>
                </g>
            </g>
        </g>
    </g>
</svg>