<?xml version="1.0" encoding="UTF-8"?>
<svg width="32px" height="41px" viewBox="0 0 32 41" version="1.1" xmlns="http://www.w3.org/2000/svg" xmlns:xlink="http://www.w3.org/1999/xlink">
    <title>Fill 12</title>
    <g id="Page-1" stroke="none" stroke-width="1" fill="none" fill-rule="evenodd">
        <path d="M30.9189,9.5072 C30.9189,9.2101 30.6216,9.2101 30.6216,9.2101 C27.3514,9.2101 25.5676,9.5072 23.7838,10.1014 C23.7838,9.8043 23.7838,9.8043 23.7838,9.8043 C23.4865,9.2101 23.4865,8.6159 24.0811,8.0217 C26.1622,6.2391 26.1622,6.2391 26.1622,6.2391 C26.1622,6.2391 26.1622,6.2391 26.1622,5.942 C26.7568,3.8623 23.1892,2.971 22.5946,2.6739 C22.5946,2.6739 22.2973,2.6739 22.2973,2.971 C20.5135,4.7536 20.5135,4.7536 20.5135,4.7536 C20.8108,2.0797 20.8108,2.0797 20.8108,2.0797 C20.8108,1.7826 20.8108,1.7826 20.8108,1.7826 C19.6216,-1.11022302e-16 16.3514,1.4855 16.0541,1.4855 C16.0541,1.4855 15.7568,1.7826 15.7568,1.7826 C15.7568,4.4565 15.7568,4.4565 15.7568,4.4565 C13.973,2.0797 13.973,2.0797 13.973,2.0797 C13.973,1.7826 13.6757,1.7826 13.3784,1.7826 C10.7027,2.6739 10.7027,4.4565 10.7027,4.4565 C10.7027,4.7536 10.7027,4.7536 10.7027,4.7536 C11.5946,5.942 11.8919,6.8333 11.5946,7.7246 C11.2973,8.3188 10.7027,8.913 10.4054,9.2101 C9.8108,3.8623 9.8108,3.8623 9.8108,3.8623 C9.8108,3.8623 9.8108,3.5652 9.5135,3.5652 C7.7297,2.6739 5.9459,3.8623 5.3514,4.7536 C5.3514,5.0507 5.3514,5.0507 5.3514,5.0507 C5.6486,8.913 5.6486,8.913 5.6486,8.913 C2.0811,8.3188 2.0811,8.3188 2.0811,8.3188 C2.0811,8.3188 1.7838,8.3188 1.7838,8.3188 C-2.22044605e-16,9.8043 0.8919,12.1812 1.7838,13.3696 C1.7838,13.3696 1.7838,13.6667 1.7838,13.6667 C5.6486,14.2609 5.6486,14.2609 5.6486,14.2609 C5.6486,14.2609 5.6486,14.2609 5.9459,14.2609 C5.9459,14.2609 5.9459,14.2609 5.9459,14.2609 C5.9459,17.529 5.9459,17.529 5.9459,17.529 C5.0541,18.4203 4.4595,19.3116 3.8649,20.2029 C2.0811,23.7681 2.3784,30.0072 4.7568,32.087 C5.0541,32.3841 5.3514,32.9783 5.6486,33.2754 C6.2432,35.6522 9.2162,39.8116 20.8108,40.7029 C21.1081,40.7029 22.2973,41 24.0811,41 C25.8649,41 27.9459,40.7029 29.1351,39.5145 C30.027,38.9203 30.6216,38.029 30.6216,36.5435 C30.6216,35.9493 30.6216,35.3551 30.6216,34.7609 C30.9189,31.1957 31.2162,22.2826 24.6757,19.6087 C24.0811,19.6087 23.7838,19.3116 23.4865,19.0145 C23.4865,19.0145 23.4865,19.0145 23.4865,19.0145 C23.4865,19.0145 23.4865,19.0145 23.4865,19.0145 C23.4865,19.0145 23.4865,19.0145 23.4865,18.7174 C25.2703,17.529 25.2703,16.6377 24.973,15.7464 C24.973,15.1522 24.973,15.1522 25.2703,14.8551 C26.4595,13.6667 29.7297,13.6667 30.9189,13.6667 C31.2162,13.6667 31.2162,13.6667 31.2162,13.3696 C33,12.1812 30.9189,9.5072 30.9189,9.5072 Z M12.4865,8.0217 C12.7838,6.8333 12.4865,5.6449 11.5946,4.4565 C11.5946,4.1594 12.1892,3.2681 13.3784,2.971 C14.8649,5.0507 14.8649,5.0507 14.8649,5.0507 C15.1622,5.3478 15.7568,5.3478 16.0541,5.3478 C16.3514,5.3478 16.6486,5.0507 16.6486,4.4565 C16.6486,2.3768 16.6486,2.3768 16.6486,2.3768 C17.5405,1.7826 19.3243,1.4855 19.9189,2.0797 C19.6216,6.2391 19.6216,6.2391 19.6216,6.2391 C19.6216,6.5362 19.6216,6.5362 19.9189,6.5362 C19.9189,6.8333 20.2162,6.5362 20.5135,6.5362 C22.5946,3.5652 22.5946,3.5652 22.5946,3.5652 C23.7838,4.1594 25.2703,4.7536 25.2703,5.6449 C23.4865,7.4275 23.4865,7.4275 23.4865,7.4275 C22.5946,8.0217 22.5946,9.2101 22.8919,10.1014 C23.1892,10.3986 23.1892,10.3986 23.1892,10.3986 C22.5946,10.6957 22,10.6957 21.4054,10.9928 C20.8108,11.2899 20.5135,11.587 19.9189,11.8841 C16.9459,13.0725 16.9459,15.7464 17.5405,17.529 C17.2432,17.529 17.2432,17.529 16.9459,17.529 C16.6486,17.8261 16.6486,17.8261 16.6486,17.8261 C13.973,15.1522 13.973,15.1522 13.973,15.1522 C13.973,15.1522 13.6757,15.1522 13.6757,15.1522 C12.4865,14.2609 11,14.8551 9.8108,15.4493 C9.2162,13.6667 9.2162,10.6957 10.1081,10.1014 C10.4054,10.1014 11.8919,9.5072 12.4865,8.0217 Z M2.3784,12.7754 C2.0811,12.1812 0.8919,10.1014 2.0811,9.2101 C5.6486,9.8043 5.6486,9.8043 5.6486,9.8043 C5.9459,13.3696 5.9459,13.3696 5.9459,13.3696 L2.3784,12.7754 Z M6.2432,5.3478 C6.5405,4.7536 7.7297,3.8623 8.9189,4.4565 C9.5135,9.5072 9.5135,9.5072 9.5135,9.5072 C8.027,10.6957 8.6216,14.558 8.9189,15.7464 C8.3243,16.0435 7.4324,16.6377 6.8378,16.9348 L6.2432,5.3478 Z M4.7568,20.7971 C5.6486,18.4203 8.3243,16.9348 10.1081,16.3406 C11,16.0435 11.5946,15.7464 12.1892,15.7464 C12.7838,15.7464 13.0811,15.7464 13.3784,15.7464 C16.0541,18.4203 16.0541,18.4203 16.0541,18.4203 C16.0541,18.4203 16.0541,18.4203 16.0541,18.4203 C16.6486,18.7174 16.9459,18.7174 17.2432,18.4203 C16.9459,19.9058 15.4595,22.2826 13.6757,23.1739 C10.4054,24.6594 9.2162,28.2246 8.6216,29.413 C8.6216,30.0072 8.3243,30.6014 8.027,30.8986 C7.1351,31.7899 6.2432,32.087 5.9459,31.7899 C5.9459,31.7899 5.9459,31.7899 5.6486,31.7899 C5.6486,31.7899 5.3514,31.4928 5.3514,31.4928 C3.5676,29.7101 2.973,24.0652 4.7568,20.7971 Z M29.7297,34.7609 C29.7297,35.3551 29.7297,35.9493 29.7297,36.5435 C29.7297,37.7319 29.4324,38.3261 28.5405,38.9203 C26.4595,40.7029 21.1081,39.8116 21.1081,39.8116 C9.5135,38.9203 6.8378,34.7609 6.5405,33.2754 C6.2432,32.9783 6.2432,32.9783 6.2432,32.6812 C6.8378,32.6812 7.7297,32.3841 8.6216,31.4928 C8.9189,31.1957 9.5135,30.3043 9.5135,29.7101 C9.8108,28.5217 11,25.2536 13.973,24.0652 C16.6486,22.8768 17.8378,19.3116 18.4324,18.4203 C21.4054,18.7174 22.5946,19.3116 22.8919,19.6087 C22.8919,19.9058 23.4865,21.3913 22.8919,24.0652 C22.8919,24.0652 22.8919,24.0652 22.8919,24.3623 C22.8919,24.9565 22.5946,25.8478 22.2973,26.7391 C22,26.7391 21.7027,26.7391 21.4054,26.7391 C20.8108,26.7391 20.2162,27.0362 19.3243,27.6304 C18.7297,28.5217 18.4324,29.1159 18.4324,30.0072 C18.1351,31.1957 17.8378,32.087 14.8649,31.7899 C14.5676,31.7899 14.2703,32.087 14.2703,32.3841 C14.2703,32.6812 14.5676,32.6812 14.8649,32.6812 C15.1622,32.6812 15.4595,32.9783 15.7568,32.9783 C18.4324,32.9783 18.7297,31.4928 19.3243,30.0072 C19.3243,29.413 19.6216,28.8188 19.9189,28.2246 C20.5135,27.9275 21.1081,27.6304 21.4054,27.6304 C21.7027,27.6304 21.7027,27.6304 22,27.6304 C21.4054,28.5217 21.1081,29.413 20.5135,30.6014 C20.5135,30.6014 19.6216,31.1957 19.9189,32.6812 C20.2162,34.1667 22,35.6522 25.2703,37.1377 C25.2703,37.1377 25.2703,37.1377 25.2703,37.1377 C25.5676,37.1377 25.5676,37.1377 25.8649,36.8406 C25.8649,36.5435 25.8649,36.2464 25.5676,36.2464 C22,34.7609 20.8108,33.2754 20.8108,32.3841 C20.5135,31.7899 21.1081,31.1957 21.1081,31.1957 C22,30.0072 22.2973,28.8188 22.8919,27.6304 C22.8919,27.6304 22.8919,27.6304 22.8919,27.6304 C23.1892,26.7391 23.4865,25.8478 23.7838,25.2536 C24.3784,26.1449 25.2703,27.6304 24.6757,29.1159 C24.6757,29.413 24.6757,29.7101 24.973,29.7101 C24.973,29.7101 24.973,29.7101 24.973,29.7101 C25.2703,29.7101 25.5676,29.7101 25.5676,29.413 C26.1622,27.0362 24.3784,24.6594 24.0811,24.0652 C24.0811,22.5797 24.0811,21.0942 24.0811,20.2029 C24.0811,20.5 24.0811,20.5 24.3784,20.5 C30.3243,22.8768 30.027,32.087 29.7297,34.7609 Z M30.9189,12.7754 C30.027,12.7754 26.1622,12.7754 24.6757,13.9638 C24.0811,14.558 24.0811,15.1522 24.0811,15.7464 C24.3784,16.3406 24.3784,16.9348 22.5946,18.4203 C21.7027,17.8261 20.2162,17.529 18.4324,17.529 C18.1351,16.6377 17.5405,13.6667 20.2162,12.4783 C20.8108,12.4783 21.4054,12.1812 21.7027,11.8841 C22.5946,11.587 23.1892,11.2899 23.7838,10.9928 C23.7838,10.9928 23.7838,10.9928 23.7838,10.9928 C24.0811,10.9928 24.0811,10.9928 24.0811,10.9928 C25.5676,10.3986 27.0541,10.1014 30.3243,10.1014 C30.6216,10.6957 31.2162,12.1812 30.9189,12.7754 Z" id="Fill-12" fill="#000000"></path>
    </g>
</svg>