<?xml version="1.0" encoding="UTF-8"?>
<svg width="32px" height="40px" viewBox="0 0 32 40" version="1.1" xmlns="http://www.w3.org/2000/svg" xmlns:xlink="http://www.w3.org/1999/xlink">
    <title>Group 3</title>
    <g id="Page-1" stroke="none" stroke-width="1" fill="none" fill-rule="evenodd">
        <g id="Group-3" transform="translate(0.182417, 0.000000)" fill="#000000">
            <path d="M30.2156827,12.7407 C29.9146827,12.1481 29.6136827,12.1481 29.3126827,12.1481 C28.7107827,12.1481 28.4097827,12.1481 28.1088827,12.4444 C28.7107827,5.037 26.3029827,0.5926 26.0020827,0.2963 C26.0020827,0 25.7010827,0 25.4000827,0 C25.4000827,0.2963 25.0991827,0.5926 25.4000827,0.5926 C25.4000827,0.8889 28.1088827,5.6296 27.2058827,13.3333 C27.2058827,13.3333 27.2058827,13.6296 27.5068827,13.6296 C27.5068827,13.9259 27.8078827,13.6296 27.8078827,13.6296 C27.8078827,13.6296 28.4097827,13.037 29.3126827,13.037 C29.3126827,13.037 29.3126827,13.037 29.3126827,13.037 C29.9146827,13.9259 29.9146827,15.7037 29.3126827,17.1852 C29.3126827,17.1852 28.4097827,18.963 28.4097827,20.1481 C28.4097827,20.4444 28.4097827,20.4444 28.1088827,20.7407 C27.8078827,20.7407 27.5068827,20.7407 27.5068827,20.7407 C27.5068827,19.8519 27.8078827,18.963 27.8078827,18.3704 C27.8078827,18.0741 27.5068827,17.7778 27.2058827,17.7778 C26.9049827,17.7778 26.9049827,18.0741 26.9049827,18.3704 C26.9049827,20.1481 26.0020827,23.7037 23.8952827,26.963 C23.8952827,26.963 23.8952827,26.963 23.8952827,26.963 C22.0893827,30.2222 19.0796827,32.8889 14.8660827,32.8889 C6.43898272,32.8889 3.73018272,18.3704 3.73018272,18.0741 C3.42928272,18.0741 3.42928272,17.7778 3.12828272,17.7778 C2.82728272,17.7778 2.52628272,18.0741 2.82728272,18.3704 C2.82728272,18.3704 2.82728272,19.5556 3.12828272,20.7407 C3.12828272,20.7407 2.82728272,20.7407 2.52628272,20.7407 C2.52628272,20.4444 2.22538272,20.4444 2.22538272,20.1481 C2.22538272,18.963 1.32248272,17.1852 1.32248272,17.1852 C0.720482716,15.7037 0.720482716,13.9259 1.32248272,13.037 C1.32248272,13.037 1.32248272,13.037 1.62338272,13.037 C2.22538272,13.037 2.82728272,13.6296 2.82728272,13.6296 C2.82728272,13.6296 3.12828272,13.9259 3.42928272,13.6296 C3.42928272,13.6296 3.73018272,13.3333 3.73018272,13.3333 C2.52628272,5.6296 5.23508272,0.8889 5.23508272,0.5926 C5.53598272,0.5926 5.53598272,0.2963 5.23508272,0 C4.93408272,0 4.63308272,0 4.63308272,0.2963 C4.33218272,0.5926 1.92438272,5.037 2.52628272,12.4444 C2.22538272,12.1481 1.92438272,12.1481 1.62338272,12.1481 C1.32248272,12.1481 1.02148272,12.1481 0.419482716,12.7407 C-0.182417284,13.6296 -0.182417284,15.7037 0.720482716,17.7778 C0.720482716,17.7778 1.32248272,18.963 1.32248272,20.1481 C1.32248272,20.7407 1.62338272,21.037 2.22538272,21.3333 C2.52628272,21.6296 2.82728272,21.6296 3.12828272,21.6296 C3.12828272,21.6296 3.42928272,21.6296 3.42928272,21.6296 C4.03118272,23.4074 4.93408272,25.4815 6.13798272,27.5556 C6.13798272,28.4444 7.34188272,34.963 6.13798272,39.4074 C5.83698272,39.7037 6.13798272,39.7037 6.13798272,40 C6.43898272,40 6.43898272,40 6.43898272,40 C6.73988272,40 6.73988272,39.7037 6.73988272,39.7037 C7.94378272,36.1481 7.64278272,32 7.34188272,29.3333 C9.14768272,32 11.5554827,33.7778 14.8660827,33.7778 C18.7787827,33.7778 21.4874827,31.7037 23.5942827,29.3333 C22.9923827,31.7037 22.6913827,36.1481 23.8952827,39.7037 C23.8952827,39.7037 24.1961827,40 24.1961827,40 C24.1961827,40 24.4971827,40 24.4971827,40 C24.4971827,39.7037 24.7981827,39.7037 24.7981827,39.4074 C23.2932827,34.963 24.4971827,28.4444 24.7981827,27.5556 C26.0020827,25.4815 26.6039827,23.4074 27.2058827,21.6296 C27.2058827,21.6296 27.5068827,21.6296 27.8078827,21.6296 C28.1088827,21.6296 28.4097827,21.6296 28.7107827,21.3333 C29.0117827,21.037 29.3126827,20.7407 29.3126827,20.1481 C29.3126827,18.963 30.2156827,17.7778 30.2156827,17.7778 C30.8175827,15.7037 30.8175827,13.6296 30.2156827,12.7407 Z" id="Fill-44"></path>
            <path d="M3.81758272,12.5 C3.81758272,12.8 4.12058272,12.8 4.42368272,12.8 C4.42368272,12.8 6.54488272,11.9 8.66608272,11.9 C10.7872827,11.9 12.9084827,13.7 12.9084827,13.7 C12.9084827,14 13.2114827,14 13.2114827,14 C13.5145827,14 13.5145827,14 13.5145827,13.7 C13.8175827,13.7 13.8175827,13.4 13.5145827,13.1 C13.5145827,13.1 11.0902827,11 8.66608272,11 C6.24178272,11 4.12058272,11.9 4.12058272,11.9 C3.81758272,12.2 3.81758272,12.5 3.81758272,12.5 Z" id="Fill-45"></path>
            <path d="M17.0902827,14 C17.3630827,14 17.3630827,14 17.3630827,13.7 C17.3630827,13.7 19.5448827,11.9 21.4539827,11.9 C23.3630827,11.9 24.9993827,12.8 24.9993827,12.8 C25.2720827,12.8 25.5448827,12.8 25.5448827,12.5 C25.8175827,12.5 25.8175827,12.2 25.5448827,11.9 C25.2720827,11.9 23.3630827,11 21.4539827,11 C19.2720827,11 17.0902827,13.1 16.8175827,13.1 C16.8175827,13.4 16.8175827,13.7 16.8175827,13.7 C16.8175827,14 17.0902827,14 17.0902827,14 Z" id="Fill-46"></path>
            <path d="M12.2575827,16 C12.5375827,16 12.5375827,16 12.5375827,16 C12.8175827,15.7778 12.8175827,15.5556 12.5375827,15.5556 C11.6975827,14.6667 10.2975827,14.8889 9.17758272,14.8889 C8.61758272,14.8889 8.05758272,15.1111 7.77758272,14.8889 C6.65758272,14.8889 6.65758272,14.4444 6.65758272,14.4444 C6.65758272,14.2222 6.37758272,14 6.09758272,14.2222 C5.81758272,14.2222 5.81758272,14.4444 5.81758272,14.4444 C5.81758272,14.6667 6.09758272,15.5556 7.49758272,15.5556 C8.05758272,15.7778 8.61758272,15.5556 9.17758272,15.5556 C10.2975827,15.5556 11.4175827,15.3333 11.9775827,16 C12.2575827,16 12.2575827,16 12.2575827,16 Z" id="Fill-47"></path>
            <path d="M25.4975827,14.2222 C25.1775827,14 24.8575827,14.2222 24.8575827,14.4444 C24.8575827,14.4444 24.5375827,14.8889 23.5775827,14.8889 C23.2575827,15.1111 22.6175827,14.8889 21.9775827,14.8889 C20.6975827,14.8889 19.0975827,14.6667 17.8175827,15.5556 C17.8175827,15.5556 17.8175827,15.7778 17.8175827,16 C18.1375827,16 18.1375827,16 18.1375827,16 C18.4575827,16 18.4575827,16 18.4575827,16 C19.4175827,15.3333 20.6975827,15.5556 21.9775827,15.5556 C22.6175827,15.5556 23.2575827,15.7778 23.5775827,15.5556 C25.4975827,15.5556 25.8175827,14.6667 25.8175827,14.4444 C25.8175827,14.4444 25.8175827,14.2222 25.4975827,14.2222 Z" id="Fill-48"></path>
            <path d="M12.6637827,24.8333 C12.3560827,24.8333 11.1252827,25.9444 10.8175827,26.5 C10.8175827,26.5 10.8175827,26.7778 10.8175827,26.7778 C11.1252827,27.3333 11.7406827,29 14.8175827,29 C17.5867827,29 18.5098827,27.3333 18.5098827,26.7778 C18.8175827,26.7778 18.8175827,26.5 18.5098827,26.5 C18.2021827,25.9444 17.2790827,24.8333 16.9713827,24.8333 C16.0483827,24 15.1252827,24.2777875 15.1252827,24.5556 C14.8175827,24.5556 14.8175827,24.8333 14.8175827,24.8333 C14.5098827,24.8333 14.5098827,24.5556 14.5098827,24.5556 C14.2021827,24.2777875 13.5867827,24 12.6637827,24.8333 Z M14.8175827,28.1667 C12.9713827,28.1667 12.3560827,27.6111 12.0483827,27.0556 C12.3560827,27.0556 12.6637827,26.7778 12.9713827,26.7778 C12.9713827,26.7778 13.5867827,26.5 13.8944827,26.7778 C13.8944827,27.0556 14.2021827,27.0556 14.8175827,27.0556 C15.1252827,27.0556 15.4329827,27.0556 15.4329827,26.7778 C16.0483827,26.5 16.3560827,26.7778 16.6637827,26.7778 C16.9713827,27.0556 17.2790827,27.0556 17.5867827,27.0556 C17.2790827,27.6111 16.6637827,28.1667 14.8175827,28.1667 Z M16.3560827,25.3889 C16.6637827,25.6667 16.9713827,25.9444 17.2790827,26.2222 C16.9713827,25.9444 16.9713827,25.9444 16.9713827,25.9444 C16.6637827,25.9444 15.7406827,25.6667 15.1252827,26.2222 C15.1252827,26.2222 14.8175827,26.2222 14.8175827,26.2222 C14.5098827,26.2222 14.5098827,26.2222 14.5098827,26.2222 C14.5098827,26.2222 14.5098827,26.2222 14.5098827,26.2222 C13.8944827,25.6667 12.9713827,25.9444 12.6637827,25.9444 C12.6637827,25.9444 12.3560827,25.9444 12.3560827,26.2222 C12.6637827,25.9444 12.9713827,25.6667 13.2790827,25.3889 C13.5867827,25.1111 13.8944827,25.1111 13.8944827,25.1111 C13.8944827,25.1111 14.2021827,25.6667 14.8175827,25.6667 C15.1252827,25.6667 15.7406827,25.1111 15.7406827,25.1111 C15.7406827,25.1111 16.0483827,25.1111 16.3560827,25.3889 Z" id="Fill-49"></path>
            <path d="M15.3889827,22 C15.3889827,22 15.6746827,22 15.6746827,21.8 C15.6746827,21.8 15.9604827,21.6 16.2461827,21.6 C16.5318827,21.6 16.8175827,21.4 16.8175827,21.4 C16.8175827,21.2 16.5318827,21 16.2461827,21 C15.6746827,21 15.1032827,21.4 15.1032827,21.6 C14.8175827,21.6 14.8175827,21.8 15.1032827,22 C15.1032827,22 15.3889827,22 15.3889827,22 Z" id="Fill-50"></path>
            <path d="M12.8175827,21.4 C12.8175827,21.4 13.1032827,21.6 13.3889827,21.6 C13.6746827,21.6 13.9604827,21.8 13.9604827,21.8 C13.9604827,22 14.2461827,22 14.2461827,22 C14.2461827,22 14.5318827,22 14.5318827,22 C14.8175827,21.8 14.8175827,21.6 14.5318827,21.6 C14.5318827,21.4 13.9604827,21 13.3889827,21 C13.1032827,21 12.8175827,21.2 12.8175827,21.4 Z" id="Fill-51"></path>
        </g>
    </g>
</svg>