<?xml version="1.0" encoding="UTF-8"?>
<svg width="42px" height="37px" viewBox="0 0 42 37" version="1.1" xmlns="http://www.w3.org/2000/svg" xmlns:xlink="http://www.w3.org/1999/xlink">
    <title>Group 4</title>
    <g id="Page-1" stroke="none" stroke-width="1" fill="none" fill-rule="evenodd">
        <g id="Group-4" transform="translate(0.553173, 0.468291)" fill="#000000">
            <path d="M7.50932652,2.53170856 C5.63432652,4.57785856 4.38432652,6.62401856 4.07182652,8.96247856 C3.44682652,11.5932486 3.44682652,14.2240186 4.07182652,16.8547886 C4.69682652,18.6086286 5.32182652,20.0701686 6.88432652,21.5317086 C6.88432652,21.5317086 6.88432652,21.5317086 7.19682652,21.5317086 C7.19682652,21.5317086 7.19682652,21.5317086 7.50932652,21.5317086 C7.50932652,21.2393986 7.50932652,20.9470986 7.50932652,20.9470986 C6.25932652,19.4855586 5.32182652,18.0240186 5.00932652,16.5624786 C4.38432652,14.2240186 4.38432652,11.5932486 5.00932652,8.96247856 C5.32182652,6.91632856 6.57182652,4.87016856 8.13432652,3.11632856 C8.44682652,3.11632856 8.44682652,3.11632856 8.44682652,3.11632856 C7.82182652,2.82401856 7.82182652,2.82401856 7.82182652,2.82401856 L7.50932652,2.53170856 Z" id="Fill-52"></path>
            <path d="M39.2584265,6.26341856 C38.9613265,5.67804856 38.9613265,5.67804856 38.9613265,5.67804856 C38.3671265,4.50731856 37.7729265,3.33658856 35.6932265,1.58048856 C33.3164265,-0.17561144 29.1569265,-0.46829144 27.0772265,0.70243856 C23.8091265,2.16585856 23.2149265,5.09268856 24.1062265,7.14146856 C24.4033265,7.72682856 24.9975265,8.31219856 25.5917265,9.19024856 C25.2946265,9.19024856 24.9975265,9.48292856 24.7004265,10.0682986 C24.7004265,10.0682986 24.4033265,10.3609786 24.1062265,10.9463386 C22.9178265,12.1170786 20.8381265,14.1658586 19.9468265,16.5073186 C19.0555265,14.1658586 17.2729265,12.1170786 16.0845265,10.9463386 C15.7874265,10.3609786 15.4903265,10.0682986 15.1932265,10.0682986 C14.8961265,9.48292856 14.5990265,9.19024856 14.3019265,9.19024856 C14.8961265,8.31219856 15.4903265,7.72682856 15.7874265,7.14146856 C16.6787265,5.09268856 16.0845265,2.16585856 13.1135265,0.70243856 C11.0338265,-0.46829144 6.87432652,-0.17561144 4.20042652,1.58048856 C2.12072652,3.33658856 1.52652652,4.50731856 1.22942652,5.67804856 C0.93232652,6.26341856 0.93232652,6.26341856 0.93232652,6.26341856 C-0.55317348,9.19024856 0.0410265198,14.4585386 0.63522652,17.0926886 C1.22942652,20.8975586 5.09172652,25.2878086 8.35982652,25.5804886 C8.95402652,25.8731686 9.54822652,25.8731686 9.84542652,25.8731686 C11.0338265,25.8731686 11.9251265,25.5804886 12.5193265,25.2878086 C14.5990265,24.1170786 15.4903265,22.9463386 15.7874265,20.8975586 C15.7874265,20.0195186 15.4903265,18.5560986 14.8961265,17.3853686 C15.7874265,18.5560986 16.3816265,19.7268286 16.3816265,20.3121986 C16.3816265,34.9463386 16.3816265,34.9463386 16.3816265,34.9463386 C16.3816265,35.2390286 16.6787265,35.2390286 16.9758265,35.2390286 C17.2729265,35.2390286 17.2729265,35.2390286 17.2729265,34.9463386 C17.2729265,20.3121986 17.2729265,20.3121986 17.2729265,20.3121986 C17.2729265,18.8487786 14.8961265,15.9219486 13.4106265,14.7512186 C13.4106265,14.4585386 13.4106265,14.4585386 13.4106265,14.1658586 C13.1135265,13.8731686 12.8164265,12.1170786 13.1135265,10.9463386 C13.4106265,10.6536586 13.7077265,10.3609786 14.0048265,9.77560856 C14.0048265,9.77560856 14.3019265,10.0682986 14.5990265,10.3609786 C14.8961265,10.6536586 14.8961265,10.9463386 15.4903265,11.5317086 C16.6787265,12.7024386 18.4613265,14.4585386 19.3526265,16.7999986 C19.3526265,17.3853686 19.6497265,25.5804886 19.6497265,32.0195186 C19.6497265,32.8975586 19.6497265,33.7756086 19.6497265,34.3609786 C19.6497265,34.6536586 19.6497265,34.9463386 19.6497265,34.9463386 C19.6497265,35.2390286 19.6497265,35.2390286 19.9468265,35.5317086 C19.9468265,35.5317086 19.9468265,35.5317086 19.9468265,35.5317086 C19.9468265,35.5317086 19.9468265,35.5317086 19.9468265,35.5317086 C19.9468265,35.5317086 19.9468265,35.5317086 19.9468265,35.5317086 C19.9468265,35.5317086 19.9468265,35.5317086 19.9468265,35.5317086 C19.9468265,35.5317086 19.9468265,35.5317086 19.9468265,35.5317086 C19.9468265,35.5317086 19.9468265,35.5317086 19.9468265,35.5317086 C19.9468265,35.5317086 20.2439265,35.5317086 20.2439265,35.5317086 C20.2439265,35.5317086 20.2439265,35.5317086 20.2439265,35.5317086 C20.2439265,35.2390286 20.5410265,35.2390286 20.5410265,34.9463386 C20.5410265,34.9463386 20.5410265,34.6536586 20.5410265,34.3609786 C20.5410265,33.7756086 20.5410265,32.8975586 20.5410265,32.0195186 C20.5410265,25.5804886 20.5410265,17.3853686 20.8381265,16.7999986 C21.7294265,14.4585386 23.5120265,12.7024386 24.7004265,11.5317086 C24.9975265,10.9463386 25.2946265,10.6536586 25.5917265,10.3609786 C25.8888265,10.0682986 25.8888265,9.77560856 26.1859265,9.77560856 C26.4830265,10.3609786 26.7801265,10.6536586 26.7801265,10.9463386 C27.0772265,11.8243886 26.7801265,13.2878086 26.7801265,14.1658586 C26.7801265,14.4585386 26.7801265,14.4585386 26.4830265,14.7512186 C24.9975265,15.9219486 22.6207265,18.8487786 22.6207265,20.3121986 C22.6207265,34.9463386 22.6207265,34.9463386 22.6207265,34.9463386 C22.6207265,35.2390286 22.9178265,35.2390286 22.9178265,35.2390286 C23.2149265,35.2390286 23.5120265,35.2390286 23.5120265,34.9463386 C23.5120265,20.3121986 23.5120265,20.3121986 23.5120265,20.3121986 C23.5120265,19.7268286 24.1062265,18.5560986 24.9975265,17.3853686 C24.4033265,18.5560986 24.1062265,20.0195186 24.4033265,20.8975586 C24.7004265,22.9463386 25.5917265,24.1170786 27.3743265,25.2878086 C27.9685265,25.5804886 28.8598265,25.8731686 30.0482265,25.8731686 C30.6425265,25.8731686 31.2367265,25.8731686 31.5338265,25.5804886 C34.8019265,25.2878086 38.6642265,20.8975586 39.5555265,17.0926886 C40.1497265,14.4585386 40.4468265,9.19024856 39.2584265,6.26341856 Z M14.8961265,20.8975586 C14.5990265,22.6536586 14.0048265,23.5317086 12.2222265,24.4097586 C11.6280265,24.7024386 10.4396265,24.9951186 8.35982652,24.7024386 C5.68592652,24.4097586 2.12072652,20.6048786 1.22942652,17.0926886 C0.93232652,14.1658586 0.63522652,9.19024856 1.82362652,6.55609856 C1.82362652,5.97072856 1.82362652,5.97072856 1.82362652,5.97072856 C2.41782652,4.79999856 3.01202652,3.62926856 4.79462652,2.45853856 C6.28012652,1.28780856 8.06272652,0.99511856 9.84542652,0.99511856 C11.0338265,0.99511856 11.9251265,0.99511856 12.5193265,1.58048856 C15.1932265,2.75121856 15.7874265,5.09268856 14.8961265,6.55609856 C14.8961265,7.14146856 14.3019265,8.01951856 13.7077265,8.60487856 C13.7077265,8.60487856 13.7077265,8.60487856 13.7077265,8.60487856 C13.4106265,8.60487856 13.4106265,8.60487856 13.1135265,8.60487856 C13.1135265,8.60487856 11.6280265,9.48292856 10.4396265,8.01951856 C10.1425265,8.01951856 9.84542652,8.01951856 9.84542652,8.01951856 C9.54822652,8.31219856 9.54822652,8.60487856 9.84542652,8.60487856 C10.7367265,9.48292856 11.6280265,9.77560856 12.2222265,9.77560856 C12.5193265,9.77560856 12.8164265,9.77560856 12.8164265,9.77560856 C12.5193265,10.0682986 12.5193265,10.3609786 12.2222265,10.6536586 C11.9251265,11.8243886 12.2222265,13.8731686 12.5193265,14.1658586 C11.6280265,14.1658586 10.1425265,13.8731686 8.95402652,15.0439086 C8.65692652,15.0439086 8.65692652,15.3365886 8.95402652,15.6292686 C8.95402652,15.6292686 8.95402652,15.6292686 9.25112652,15.6292686 C9.25112652,15.6292686 9.25112652,15.6292686 9.54822652,15.6292686 C10.7367265,14.4585386 12.2222265,15.3365886 12.5193265,15.3365886 C12.5193265,15.3365886 12.5193265,15.3365886 12.5193265,15.3365886 C12.5193265,15.3365886 12.5193265,15.3365886 12.5193265,15.3365886 C12.5193265,15.3365886 12.8164265,15.3365886 12.8164265,15.3365886 C12.8164265,15.6292686 12.8164265,15.6292686 12.8164265,15.6292686 C12.8164265,15.9219486 13.1135265,16.2146386 13.1135265,16.5073186 C13.4106265,16.7999986 13.4106265,17.0926886 13.7077265,17.3853686 C14.5990265,18.2634186 14.8961265,19.7268286 14.8961265,20.8975586 Z M38.6642265,17.0926886 C38.0700265,20.6048786 34.5048265,24.4097586 31.5338265,24.7024386 C29.7511265,24.9951286 28.5627265,24.7024386 27.9685265,24.4097586 C26.1859265,23.5317086 25.5917265,22.6536586 25.2946265,20.8975586 C24.9975265,19.7268286 25.5917265,18.2634186 26.1859265,17.3853686 C26.4830265,17.0926886 26.7801265,16.7999986 26.7801265,16.5073186 C27.0772265,16.2146386 27.0772265,15.9219486 27.0772265,15.6292686 C27.3743265,15.6292686 27.3743265,15.6292686 27.3743265,15.3365886 C27.3743265,15.3365886 27.3743265,15.3365886 27.3743265,15.3365886 C27.3743265,15.3365886 27.3743265,15.3365886 27.6714265,15.3365886 C27.6714265,15.3365886 27.6714265,15.3365886 27.6714265,15.3365886 C27.6714265,15.3365886 29.1569265,14.4585386 30.6425265,15.6292686 C30.6425265,15.6292686 30.6425265,15.6292686 30.9396265,15.6292686 C30.9396265,15.6292686 31.2367265,15.6292686 31.2367265,15.6292686 C31.2367265,15.3365886 31.2367265,15.0439086 31.2367265,15.0439086 C29.7511265,13.8731686 28.2656265,14.1658586 27.6714265,14.1658586 C27.6714265,13.8731686 27.9685265,11.8243886 27.6714265,10.6536586 C27.6714265,10.3609786 27.3743265,10.0682986 27.0772265,9.77560856 C27.3743265,9.77560856 27.6714265,9.77560856 27.6714265,9.77560856 C28.5627265,9.77560856 29.4540265,9.48292856 30.3454265,8.60487856 C30.3454265,8.60487856 30.3454265,8.31219856 30.3454265,8.01951856 C30.0482265,8.01951856 29.7511265,8.01951856 29.7511265,8.01951856 C28.2656265,9.19024856 26.7801265,8.60487856 26.7801265,8.60487856 C26.7801265,8.60487856 26.4830265,8.60487856 26.4830265,8.60487856 C26.4830265,8.60487856 26.4830265,8.60487856 26.4830265,8.60487856 C25.8888265,8.01951856 25.2946265,7.14146856 24.9975265,6.55609856 C24.4033265,5.09268856 24.7004265,2.75121856 27.3743265,1.58048856 C29.1569265,0.70243856 33.0193265,0.70243856 35.0990265,2.45853856 C37.1787265,3.62926856 37.4758265,4.79999856 38.0700265,5.97072856 C38.3671265,6.55609856 38.3671265,6.55609856 38.3671265,6.55609856 C39.5555265,9.19024856 39.2584265,14.1658586 38.6642265,17.0926886 Z" id="Fill-53"></path>
            <path d="M33.3292265,2.81958856 C33.3292265,2.81958856 33.3292265,2.81958856 33.3292265,2.81958856 C33.3292265,2.53170856 33.0350265,2.53170856 32.7409265,2.81958856 C32.4468265,2.81958856 32.4468265,3.10746856 32.7409265,3.39534856 C34.5056265,5.12261856 35.3880265,7.13776856 35.9762265,9.15291856 C36.5644265,11.7438286 36.5644265,14.3347386 35.6821265,16.6377686 C35.3880265,18.0771586 34.5056265,19.5165586 33.6233265,20.9559486 C33.3292265,20.9559486 33.3292265,21.2438286 33.6233265,21.5317086 C33.6233265,21.5317086 33.6233265,21.5317086 33.9174265,21.5317086 C33.9174265,21.5317086 34.2115265,21.5317086 34.2115265,21.5317086 C35.3880265,20.0923186 36.2703265,18.6529186 36.5644265,16.9256486 C37.4468265,14.3347386 37.4468265,11.7438286 36.8586265,9.15291856 C36.2703265,6.84988856 35.0939265,4.83473856 33.3292265,2.81958856 Z" id="Fill-54"></path>
        </g>
    </g>
</svg>