<?xml version="1.0" encoding="UTF-8"?>
<svg width="41px" height="34px" viewBox="0 0 41 34" version="1.1" xmlns="http://www.w3.org/2000/svg" xmlns:xlink="http://www.w3.org/1999/xlink">
    <title>Group 6</title>
    <g id="Page-1" stroke="none" stroke-width="1" fill="none" fill-rule="evenodd">
        <g id="Artboard" transform="translate(-189.000000, -219.000000)" fill="#000000">
            <g id="Group-6" transform="translate(189.000000, 219.000000)">
                <path d="M18.58824,8.7 C18.88235,8.7 19.76471,9 20.35294,9 C21.23529,9 22.11765,8.7 22.41176,8.7 C22.41176,8.4 22.70588,8.4 22.70588,8.4 C23,8.1 23,6.6 22.70588,6.3 C22.70588,6 22.41176,6 22.41176,6 C22.11765,6.6 22.11765,6.6 22.11765,6.6 C21.82353,6.6 21.23529,6.9 20.35294,6.9 C19.76471,6.9 18.88235,6.6 18.88235,6.6 C18.58824,6 18.58824,6 18.58824,6 C18.29412,6 18.29412,6 18,6.3 C18,6.6 18,8.1 18,8.4 C18.29412,8.4 18.29412,8.4 18.58824,8.7 Z M18.88235,7.5 C19.47059,7.8 20.05882,7.8 20.35294,7.8 C20.94118,7.8 21.52941,7.8 21.82353,7.5 C21.82353,7.5 21.82353,7.5 21.82353,7.5 C21.82353,7.8 21.82353,7.8 21.82353,7.8 C21.82353,7.8 21.82353,7.8 21.82353,7.8 C21.52941,7.8 20.94118,8.1 20.35294,8.1 C19.76471,8.1 19.17647,7.8 18.88235,7.8 C18.88235,7.8 18.88235,7.8 18.88235,7.8 L18.88235,7.5 Z" id="Fill-1"></path>
                <path d="M18.58824,10.77778 C18.88235,11 19.76471,11 20.35294,11 C21.23529,11 22.11765,11 22.41176,10.77778 C22.41176,10.55556 22.70588,10.55556 22.70588,10.55556 C23,10.55556 23,9.22222 22.70588,9.22222 C22.70588,9 22.41176,9 22.41176,9 C22.11765,9.22222 22.11765,9.22222 22.11765,9.22222 C21.82353,9.22222 21.23529,9.44444 20.35294,9.44444 C19.76471,9.44444 18.88235,9.22222 18.88235,9.22222 C18.58824,9 18.58824,9 18.58824,9 C18.29412,9 18.29412,9 18,9.22222 C18,9.22222 18,10.55556 18,10.55556 C18.29412,10.55556 18.29412,10.55556 18.58824,10.77778 Z M18.88235,10.11111 C19.47059,10.11111 20.05882,10.11111 20.35294,10.11111 C20.94118,10.11111 21.52941,10.11111 21.82353,10.11111 C21.82353,10.11111 21.82353,10.11111 21.82353,10.11111 C21.82353,10.11111 21.82353,10.11111 21.82353,10.11111 C21.82353,10.11111 21.82353,10.33333 21.82353,10.33333 C21.52941,10.33333 20.94118,10.33333 20.35294,10.33333 C19.76471,10.33333 19.17647,10.33333 18.88235,10.33333 C18.88235,10.33333 18.88235,10.33333 18.88235,10.11111 Z" id="Fill-2"></path>
                <path d="M18.58824,4.77778 C18.88235,5 19.76471,5 20.35294,5 C21.23529,5 22.11765,5 22.41176,4.77778 C22.41176,4.55556 22.70588,4.55556 22.70588,4.55556 C23,4.55556 23,3.22222 22.70588,3.22222 C22.70588,3 22.41176,3 22.41176,3 C22.11765,3.22222 22.11765,3.22222 22.11765,3.22222 C21.82353,3.22222 21.23529,3.44444 20.35294,3.44444 C19.76471,3.44444 18.88235,3.22222 18.88235,3.22222 C18.58824,3 18.58824,3 18.58824,3 C18.29412,3 18.29412,3 18,3.22222 C18,3.22222 18,4.55556 18,4.55556 C18.29412,4.55556 18.29412,4.55556 18.58824,4.77778 Z M18.88235,4.11111 C19.47059,4.11111 20.05882,4.11111 20.35294,4.11111 C20.94118,4.11111 21.52941,4.11111 21.82353,4.11111 C21.82353,4.11111 21.82353,4.11111 21.82353,4.11111 C21.82353,4.11111 21.82353,4.11111 21.82353,4.11111 C21.82353,4.11111 21.82353,4.33333 21.82353,4.33333 C21.52941,4.33333 20.94118,4.33333 20.35294,4.33333 C19.76471,4.33333 19.17647,4.33333 18.88235,4.33333 C18.88235,4.11111 18.88235,4.11111 18.88235,4.11111 Z" id="Fill-3"></path>
                <path d="M18.58824,2.7 C18.88235,2.7 19.76471,3 20.35294,3 C21.23529,3 22.11765,2.7 22.41176,2.7 C22.41176,2.4 22.70588,2.4 22.70588,2.4 C23,2.1 23,0.6 22.70588,0.3 C22.70588,0 22.41176,0 22.41176,0 C22.11765,0.6 22.11765,0.6 22.11765,0.6 C21.82353,0.6 21.23529,0.9 20.35294,0.9 C19.76471,0.9 18.88235,0.6 18.88235,0.6 C18.58824,0 18.58824,0 18.58824,0 C18.29412,0 18.29412,0 18,0.3 C18,0.6 18,2.1 18,2.4 C18.29412,2.4 18.29412,2.4 18.58824,2.7 Z M18.88235,1.5 C19.47059,1.8 20.05882,1.8 20.35294,1.8 C20.94118,1.8 21.52941,1.8 21.82353,1.5 C21.82353,1.5 21.82353,1.5 21.82353,1.5 C21.82353,1.5 21.82353,1.8 21.82353,1.8 C21.82353,1.8 21.82353,1.8 21.82353,1.8 C21.52941,1.8 20.94118,2.1 20.35294,2.1 C19.76471,2.1 19.17647,1.8 18.88235,1.8 C18.88235,1.8 18.88235,1.8 18.88235,1.8 L18.88235,1.5 Z" id="Fill-4"></path>
                <path d="M40.40146,24.257144 C40.40146,24.257144 40.40146,24.257144 40.40146,24.257144 C39.20438,11.5619 34.41606,3.29524 28.13139,3 C26.63504,3 25.73723,3 24.83942,3.88571 C23.94161,4.77143 23.94161,6.8381 23.94161,10.08571 C23.94161,10.38095 23.94161,12.15238 23.64234,13.92381 C23.34307,13.92381 23.0438,13.92381 22.74453,13.92381 C23.0438,13.33333 22.74453,12.74286 22.74453,12.44762 C22.74453,12.15238 22.44526,12.15238 22.44526,12.15238 C22.14598,12.74286 22.14598,12.74286 22.14598,12.74286 C21.84672,12.74286 21.24817,13.0381 20.35037,13.0381 C19.75182,13.0381 18.85401,12.74286 18.85401,12.74286 C18.55474,12.15238 18.55474,12.15238 18.55474,12.15238 C18.25548,12.15238 18.25548,12.15238 17.9562,12.44762 C17.9562,12.74286 17.9562,13.33333 17.9562,13.92381 C17.9562,13.92381 17.9562,13.92381 17.65693,13.92381 C17.65693,14.21905 17.35766,14.21905 17.05839,14.21905 C17.05839,12.15238 16.75912,10.38095 16.75912,10.08571 C17.05839,6.8381 17.05839,4.77143 15.86131,3.88571 C15.26277,3 14.36496,3 12.56934,3 C6.583941,3.29524 1.49635,11.5619 0.2992701,24.257144 C0.2992701,24.257144 0.2992701,24.257144 0.2992701,24.257144 C0,29.866666 0.2992701,32.523809 1.49635,33.4095231 C1.79562,34 2.394161,34 2.992701,34 C3.291971,34 3.890511,34 4.489051,33.7047618 C5.087591,33.4095231 5.087591,33.4095231 5.087591,33.4095231 C7.481752,32.819048 8.678832,32.228571 10.77372,32.523809 C12.86861,32.523809 17.9562,31.933335 17.9562,24.847618 C17.9562,23.37143 17.65693,20.12381 17.65693,17.17143 C17.9562,16.87619 18.25548,16.58095 18.55474,15.99048 C19.15329,15.4 19.45255,15.10476 20.0511,14.80952 C20.0511,14.80952 20.35037,14.80952 20.35037,14.80952 C20.64964,14.80952 20.64964,14.80952 20.94891,14.80952 C21.24817,15.10476 21.84672,15.4 22.14598,15.99048 C22.44526,16.58095 23.0438,16.87619 23.34307,17.17143 C23.0438,20.12381 22.74453,23.37143 22.74453,24.847618 C22.74453,31.933335 27.83212,32.523809 30.22628,32.523809 C30.22628,32.523809 30.22628,32.523809 30.22628,32.523809 C32.0219,32.228571 33.21898,32.819048 35.61314,33.4095231 C36.51095,33.7047618 36.51095,33.7047618 36.51095,33.7047618 C36.81022,34 37.40876,34 38.0073,34 C38.60584,34 38.90511,34 39.50365,33.4095231 C40.70073,32.523809 41,29.866666 40.40146,24.257144 Z M10.77372,31.638096 C8.678832,31.342857 7.481752,31.933335 4.788321,32.819048 C4.189781,32.819048 4.189781,32.819048 4.189781,32.819048 C2.992701,33.1142869 2.394161,33.1142869 2.094891,32.819048 C1.19708,32.228571 0.8978102,29.57143 1.19708,24.257144 C2.394161,12.15238 7.182482,4.18095 12.86861,3.88571 C14.06569,3.88571 14.9635,3.88571 15.26277,4.47619 C16.16058,5.06667 16.16058,6.8381 15.86131,10.08571 C15.86131,10.38095 16.16058,12.15238 16.16058,14.21905 C14.66423,14.21905 13.16788,14.21905 11.9708,13.33333 C11.9708,13.33333 11.9708,13.0381 11.9708,13.0381 C11.9708,12.15238 11.37226,11.5619 10.47445,11.5619 C9.576643,11.5619 8.978102,12.15238 8.978102,13.0381 C8.978102,13.92381 9.576643,14.51429 10.47445,14.51429 C10.77372,14.51429 11.07299,14.51429 11.37226,14.21905 C12.27007,14.80952 13.46715,15.10476 14.9635,15.10476 C12.56934,15.99048 9.576643,16.87619 8.080292,16.87619 C8.080292,16.58095 8.080292,16.58095 8.080292,16.58095 C8.080292,15.69524 7.481752,14.80952 6.583941,14.80952 C5.686131,14.80952 5.087591,15.69524 5.087591,16.58095 C5.087591,17.17143 5.686131,18.05714 6.583941,18.05714 C6.883212,18.05714 7.182482,17.7619 7.481752,17.46667 C7.781022,17.7619 8.080292,17.7619 8.379562,17.7619 C10.17518,17.7619 12.86861,16.58095 15.56204,15.69524 C14.66423,16.28572 13.76642,17.17143 12.86861,18.05714 C11.67153,19.2381 10.47445,20.12381 9.277372,20.71429 C8.978102,20.12381 8.678832,19.82857 8.080292,19.82857 C7.182482,19.82857 6.583941,20.41905 6.583941,21.30476 C6.583941,22.19048 7.182482,22.78095 8.080292,22.78095 C8.678832,22.78095 9.576643,22.19048 9.576643,21.6 C11.07299,21.00952 12.27007,19.82857 13.46715,18.64762 C14.36496,17.7619 15.56204,16.87619 16.45985,16.28572 C16.45985,16.58095 16.45985,16.58095 16.45985,16.87619 C16.16058,17.46667 15.86131,17.7619 15.56204,18.05714 C13.46715,19.53333 12.86861,20.41905 12.86861,25.142857 C12.86861,25.142857 12.86861,25.142857 12.86861,25.142857 C11.9708,25.142857 11.37226,25.733334 11.37226,26.619048 C11.37226,27.504762 11.9708,28.095239 12.86861,28.095239 C13.76642,28.095239 14.36496,27.504762 14.36496,26.619048 C14.36496,26.028571 14.06569,25.733334 13.76642,25.438096 C13.76642,20.41905 14.36496,20.12381 16.16058,18.64762 C16.16058,18.35238 16.45985,18.35238 16.75912,18.05714 C17.05839,20.71429 17.05839,23.37143 17.05839,24.847618 C17.05839,30.752382 13.16788,31.638096 10.77372,31.638096 Z M10.77372,12.74286 C10.47445,13.33333 10.47445,13.33333 10.47445,13.33333 C10.47445,13.62857 10.47445,13.62857 10.47445,13.62857 C10.47445,13.62857 10.47445,13.62857 10.77372,13.62857 C10.47445,13.62857 10.47445,13.62857 10.47445,13.62857 C9.875912,13.62857 9.875912,13.33333 9.875912,13.0381 C9.875912,12.74286 9.875912,12.44762 10.47445,12.44762 C10.77372,12.44762 10.77372,12.44762 11.07299,12.74286 C10.77372,12.74286 10.77372,12.74286 10.77372,12.74286 Z M6.883212,16.28572 C6.284672,16.58095 6.284672,16.58095 6.284672,16.58095 C6.284672,16.87619 6.284672,16.87619 6.583941,17.17143 C6.284672,17.17143 5.985402,16.87619 5.985402,16.58095 C5.985402,15.99048 6.284672,15.69524 6.583941,15.69524 C6.883212,15.69524 7.182482,15.99048 7.182482,16.58095 C7.182482,16.58095 7.182482,16.58095 7.182482,16.58095 C7.182482,16.58095 7.182482,16.28572 6.883212,16.28572 Z M8.080292,21.89524 C8.379562,21.89524 8.379562,21.89524 8.379562,21.89524 C8.379562,21.89524 8.080292,21.89524 8.080292,21.89524 C7.781022,21.89524 7.481752,21.6 7.481752,21.30476 C7.481752,21.00952 7.781022,20.71429 8.080292,20.71429 C8.080292,20.71429 8.379562,20.71429 8.379562,21.00952 C8.379562,21.00952 8.080292,21.00952 8.080292,21.00952 C8.080292,21.89524 8.080292,21.89524 8.080292,21.89524 C8.080292,21.89524 8.080292,21.89524 8.080292,21.89524 Z M13.46715,26.619048 C13.46715,26.914287 13.16788,27.209523 12.86861,27.209523 C12.56934,27.209523 12.27007,26.914287 12.27007,26.619048 C12.27007,26.323809 12.56934,26.028571 12.86861,26.028571 C12.86861,26.028571 12.86861,26.028571 12.86861,26.028571 C13.16788,26.028571 13.16788,26.028571 13.16788,26.028571 C13.46715,26.323809 13.46715,26.323809 13.46715,26.619048 Z M17.35766,15.99048 C17.35766,15.99048 17.35766,15.69524 17.35766,15.69524 C17.65693,15.4 17.9562,15.4 18.25548,15.10476 C18.25548,15.4 17.9562,15.4 17.9562,15.4 C17.65693,15.69524 17.65693,15.99048 17.35766,15.99048 Z M22.74453,15.4 C22.74453,15.4 22.74453,15.4 22.74453,15.10476 C23.0438,15.4 23.34307,15.4 23.34307,15.69524 C23.34307,15.69524 23.34307,15.99048 23.34307,15.99048 C23.34307,15.99048 23.0438,15.69524 22.74453,15.4 Z M38.90511,32.819048 C38.30657,33.1142869 37.70803,33.1142869 36.51095,32.819048 C35.91241,32.819048 35.91241,32.819048 35.91241,32.819048 C33.81752,31.933335 32.62044,31.638096 31.12409,31.638096 C30.82482,31.638096 30.52555,31.638096 30.22628,31.638096 C27.83212,31.638096 23.64234,30.752382 23.64234,24.847618 C23.64234,23.37143 23.94161,20.71429 24.24088,18.05714 C24.24088,18.35238 24.54015,18.35238 24.83942,18.64762 C26.33577,20.12381 26.93431,20.41905 27.23358,25.438096 C26.63504,25.733334 26.33577,26.028571 26.33577,26.619048 C26.33577,27.504762 27.23358,28.095239 28.13139,28.095239 C29.0292,28.095239 29.62774,27.504762 29.62774,26.619048 C29.62774,25.733334 29.0292,25.142857 28.13139,25.142857 C28.13139,25.142857 28.13139,25.142857 28.13139,25.142857 C27.83212,20.41905 27.23358,19.53333 25.43796,18.05714 C25.13869,17.7619 24.54015,17.46667 24.24088,16.87619 C24.24088,16.58095 24.24088,16.58095 24.24088,16.28572 C25.43796,16.87619 26.33577,17.7619 27.23358,18.64762 C28.72993,19.82857 29.92701,21.00952 31.42336,21.6 C31.42336,22.19048 32.0219,22.78095 32.91971,22.78095 C33.51825,22.78095 34.41606,22.19048 34.41606,21.30476 C34.41606,20.41905 33.51825,19.82857 32.91971,19.82857 C32.32117,19.82857 31.72263,20.12381 31.42336,20.71429 C30.22628,20.12381 29.0292,19.2381 27.83212,18.05714 C26.93431,17.17143 26.0365,16.58095 25.13869,15.69524 C27.83212,16.58095 30.52555,17.7619 32.32117,17.7619 C32.62044,17.7619 32.91971,17.7619 33.21898,17.46667 C33.51825,17.7619 33.81752,18.05714 34.11679,18.05714 C35.0146,18.05714 35.91241,17.17143 35.91241,16.58095 C35.91241,15.69524 35.0146,14.80952 34.11679,14.80952 C33.51825,14.80952 32.62044,15.69524 32.62044,16.58095 C32.62044,16.58095 32.62044,16.58095 32.91971,16.87619 C31.12409,16.87619 28.13139,15.99048 25.73723,15.10476 C27.23358,15.10476 28.43066,14.80952 29.32847,14.21905 C29.62774,14.51429 29.92701,14.51429 30.52555,14.51429 C31.42336,14.51429 32.0219,13.92381 32.0219,13.0381 C32.0219,12.15238 31.42336,11.5619 30.52555,11.5619 C29.62774,11.5619 29.0292,12.15238 29.0292,13.0381 C29.0292,13.0381 29.0292,13.33333 29.0292,13.33333 C27.83212,13.92381 26.0365,14.21905 24.54015,14.21905 C24.83942,12.15238 24.83942,10.38095 24.83942,9.79048 C24.83942,6.8381 24.83942,5.06667 25.43796,4.47619 C26.0365,3.88571 26.93431,3.88571 28.13139,3.88571 C33.81752,4.18095 38.30657,12.15238 39.50365,24.257144 C40.10219,29.57143 39.80292,32.228571 38.90511,32.819048 Z M27.53285,26.028571 C28.13139,26.028571 28.13139,26.028571 28.13139,26.028571 C28.13139,26.028571 28.13139,26.028571 28.13139,26.028571 C28.43066,26.028571 28.72993,26.323809 28.72993,26.619048 C28.72993,26.914287 28.43066,27.209523 28.13139,27.209523 C27.53285,27.209523 27.23358,26.914287 27.23358,26.619048 C27.23358,26.323809 27.53285,26.323809 27.53285,26.028571 Z M32.62044,21.89524 C32.62044,21.89524 32.91971,21.89524 32.91971,21.89524 C32.91971,21.00952 32.91971,21.00952 32.91971,21.00952 C32.62044,21.00952 32.62044,21.00952 32.32117,21.00952 C32.62044,20.71429 32.62044,20.71429 32.91971,20.71429 C33.21898,20.71429 33.51825,21.00952 33.51825,21.30476 C33.51825,21.6 33.21898,21.89524 32.91971,21.89524 C32.62044,21.89524 32.32117,21.89524 32.32117,21.89524 C32.32117,21.89524 32.62044,21.89524 32.62044,21.89524 Z M33.51825,16.58095 C33.51825,15.99048 33.81752,15.69524 34.11679,15.69524 C34.71533,15.69524 35.0146,15.99048 35.0146,16.58095 C35.0146,16.87619 34.71533,17.17143 34.41606,17.17143 C34.41606,16.87619 34.71533,16.87619 34.71533,16.58095 C33.81752,16.28572 33.81752,16.28572 33.81752,16.28572 C33.81752,16.28572 33.81752,16.58095 33.51825,16.58095 C33.51825,16.58095 33.51825,16.58095 33.51825,16.58095 Z M29.92701,12.74286 C29.92701,12.74286 29.92701,12.74286 29.92701,12.74286 C29.92701,12.44762 30.22628,12.44762 30.52555,12.44762 C30.82482,12.44762 31.12409,12.74286 31.12409,13.0381 C31.12409,13.33333 30.82482,13.62857 30.52555,13.62857 C30.22628,13.62857 30.22628,13.62857 30.22628,13.62857 C30.22628,13.62857 30.22628,13.62857 30.52555,13.62857 C30.52555,13.33333 30.52555,13.33333 30.52555,13.33333 L29.92701,12.74286 Z" id="Fill-5"></path>
            </g>
        </g>
    </g>
</svg>