<?xml version="1.0" encoding="UTF-8"?>
<svg width="26px" height="26px" viewBox="0 0 26 26" version="1.1" xmlns="http://www.w3.org/2000/svg" xmlns:xlink="http://www.w3.org/1999/xlink">
    <title>rat-svgrepo-com</title>
    <g id="Page-1" stroke="none" stroke-width="1" fill="none" fill-rule="evenodd">
        <g id="Artboard" transform="translate(-273.000000, -217.000000)" fill="#000000" fill-rule="nonzero">
            <g id="rat-svgrepo-com" transform="translate(273.000000, 217.000000)">
                <circle id="Oval" cx="9" cy="14" r="1"></circle>
                <circle id="Oval" cx="17" cy="14" r="1"></circle>
                <path d="M24.6869562,17.492526 C23.5026869,16.9706147 22.3080875,16.726649 21.1923636,16.6489551 C21.8425387,15.1111837 22.2648418,13.4889048 22.4084108,11.9433463 C24.6021279,10.9199646 26,8.73055612 26,6.26214009 C26,2.8091893 23.2209764,0 19.8049091,0 C17.5403704,0 15.4805051,1.24203934 14.3942828,3.21225921 C13.9227811,3.17872167 13.4301818,3.1614662 12.9142088,3.1614662 C12.4580269,3.1614662 12.0214545,3.17597849 11.600202,3.2021714 C10.5125791,1.23779185 8.45577778,0 6.19509091,0 C2.77902357,0 0,2.8091893 0,6.26214009 C0,8.66241917 1.32179798,10.7988224 3.41169024,11.8560071 C3.54755556,13.432006 3.97598653,15.0913621 4.64156902,16.6617861 C3.57373064,16.7515145 2.43874747,16.9964536 1.31304377,17.492526 C0.952457912,17.6514533 0.787616162,18.0757607 0.944754209,18.4403376 C1.1019798,18.8048261 1.52174411,18.9717174 1.88241751,18.8126132 C3.03981145,18.3025594 4.22591919,18.1031924 5.31660606,18.0724866 C5.5440404,18.4958206 5.78898316,18.9079164 6.05038384,19.304792 C6.21321212,19.5520319 6.38006734,19.7892723 6.55024916,20.0174869 C5.09985185,20.6212511 3.4779596,21.5979988 2.18242424,23.1732013 C1.93091582,23.4790212 1.97232323,23.9329726 2.27486869,24.187203 C2.40793266,24.2990538 2.56936027,24.3535634 2.72991246,24.3535634 C2.93423569,24.3535634 3.13715825,24.2651623 3.27801347,24.0938466 C4.51927273,22.5845688 6.14746801,21.7001157 7.53037037,21.1860799 C8.3880202,22.0892928 9.31193939,22.7712817 10.2733266,23.2139065 C10.4990976,24.4978899 11.4800943,26 12.9142963,26 C14.3485859,26 15.3294949,24.4978899 15.555266,23.2139065 C16.5341616,22.7632292 17.474101,22.0640732 18.3447946,21.1363488 C19.7512458,21.6418011 21.4387946,22.5335103 22.7220741,24.0939351 C22.8629293,24.2652508 23.0657643,24.3536519 23.2701751,24.3536519 C23.4307273,24.3536519 23.5921549,24.2991423 23.7252189,24.1872915 C24.0277643,23.9330611 24.0690842,23.4791097 23.8176633,23.1732898 C22.4829966,21.5504799 20.8017508,20.562671 19.3187003,19.9636852 C19.474963,19.7521067 19.6283367,19.5327411 19.7782963,19.304969 C20.0410976,18.9059696 20.287266,18.4916616 20.5157508,18.0659383 C21.6499461,18.081247 22.897771,18.2752161 24.11767,18.8127901 C24.4780808,18.9717174 24.8981077,18.8050031 25.0553333,18.4405146 C25.2124714,18.0757607 25.0476296,17.6514533 24.6869562,17.492526 Z M19.8049091,1.80014294 C22.2389293,1.80014294 24.2191313,3.8017766 24.2191313,6.26214009 C24.2191313,7.71496154 23.5395421,9.03230549 22.4221549,9.85782452 C22.217569,7.58169628 21.2453266,5.85641549 19.5231987,4.72171397 C18.6469899,4.14440814 17.5977104,3.73125043 16.3572391,3.47533864 C17.1821481,2.4323123 18.4414411,1.80014294 19.8049091,1.80014294 Z M3.41825589,9.73420462 C2.39602694,8.90417262 1.78078114,7.64443537 1.78078114,6.26214009 C1.78078114,3.8017766 3.76098316,1.80014294 6.19500337,1.80014294 C7.54542761,1.80014294 8.79360269,2.42036621 9.61877441,3.44551766 C8.31352189,3.69850929 7.21600673,4.12157784 6.3053064,4.72162548 C4.61443098,5.83570894 3.64656566,7.51913416 3.41825589,9.73420462 Z M12.9142963,24.1996801 C12.5766465,24.1996801 12.0042963,23.3321285 12.0042963,22.6733238 C12.0042963,22.5633313 12.023468,22.5135117 12.0284579,22.5062555 C12.0296835,22.5047512 12.1653737,22.3600708 12.9142963,22.3600708 C13.6631313,22.3600708 13.7989091,22.5047512 13.8000471,22.5062555 C13.8052121,22.5135117 13.8242963,22.5634198 13.8242963,22.6733238 C13.8242088,23.332217 13.2519461,24.1996801 12.9142963,24.1996801 Z M19.2209158,16.670989 C17.2004444,16.8502689 15.748734,17.4427949 15.6428956,17.4869512 C15.2793333,17.6387108 15.1062626,18.0597441 15.2565724,18.4273297 C15.3699394,18.7049214 15.6354545,18.8726091 15.9151515,18.8726091 C16.0057576,18.8726091 16.0979394,18.8549997 16.1868822,18.817834 C16.2054411,18.8101355 17.0570505,18.4623715 18.3377912,18.2420325 C18.3237845,18.263624 18.3100404,18.2854809 18.2958586,18.3069839 C18.0433872,18.6903206 17.7795354,19.0452522 17.5075421,19.3738139 C16.5093872,19.1225036 15.8156162,19.0647199 15.7409428,19.0590566 C15.35033,19.0286162 15.0069024,19.3269144 14.9776633,19.7235246 C14.9483367,20.1200463 15.2427407,20.4655095 15.6350168,20.495065 C15.6454343,20.4958614 15.8979933,20.5169219 16.3125051,20.5909877 C15.9440404,20.901763 15.566734,21.164577 15.1846128,21.3763324 C15.0318519,21.1844871 14.8397845,21.0227282 14.6101616,20.8975155 C14.187771,20.6671772 13.648862,20.5598394 12.9142963,20.5598394 C12.1797306,20.5598394 11.6408215,20.6671772 11.218431,20.8975155 C10.9888081,21.0227282 10.7968283,21.1844871 10.6440673,21.3763324 C10.2734141,21.1709482 9.90731313,20.9173371 9.54935354,20.6186849 C10.0458923,20.5226737 10.3546532,20.4959499 10.3662088,20.495065 C10.7579596,20.4649786 11.0517508,20.1197808 11.0224242,19.7236131 C10.9930976,19.3269144 10.6508081,19.0295895 10.2591448,19.0591451 C10.1809697,19.0650739 9.42486869,19.1280784 8.35125253,19.4102716 C8.06849158,19.0717106 7.79448485,18.7045674 7.53264646,18.3070724 C7.51259933,18.276632 7.49307744,18.2455721 7.47320539,18.2149547 C8.85505724,18.4307808 9.7909697,18.8088966 9.81399327,18.818365 C9.9026734,18.8551766 9.99450505,18.8726976 10.0848485,18.8726976 C10.3645455,18.8726976 10.6300606,18.7050099 10.7434276,18.4274181 C10.8936498,18.0598326 10.7206667,17.6387993 10.3571044,17.4870397 C10.2481145,17.4415561 8.71358923,16.815227 6.60058586,16.6563883 C5.7570303,14.9078347 5.20569024,12.5287046 5.14581145,10.7943094 C5.11219529,8.52269417 5.8090303,5.57147914 11.1334276,5.0441699 C11.1484848,5.04310803 11.1635421,5.04195766 11.1785993,5.04001089 C11.7099798,4.98895242 12.2867946,4.96152066 12.9142963,4.96152066 C19.8774815,4.96152066 20.6827811,8.29040909 20.6827811,10.794221 C20.6827811,12.639759 20.1410707,14.7689946 19.2209158,16.670989 Z" id="Shape"></path>
            </g>
        </g>
    </g>
</svg>