<?xml version="1.0" encoding="UTF-8"?>
<!-- Generated by Pixelmator Pro 2.4.4 -->
<svg width="24" height="24" viewBox="0 0 24 24" xmlns="http://www.w3.org/2000/svg" xmlns:xlink="http://www.w3.org/1999/xlink">
    <path id="Line" fill="#696969" fill-rule="evenodd" stroke="#696969" stroke-width="2" stroke-opacity="0.497711" stroke-linecap="round" stroke-linejoin="round" d="M 2 2 L 2 22"/>
    <path id="path1" fill="#696969" fill-rule="evenodd" stroke="#696969" stroke-width="2" stroke-opacity="0.500254" stroke-linecap="round" stroke-linejoin="round" d="M 22 22 L 2 22"/>
    <path id="Ellipse" fill="#696969" fill-opacity="0.504306" fill-rule="evenodd" stroke="#696969" stroke-width="2" stroke-opacity="0.496802" stroke-linecap="round" stroke-linejoin="round" d="M 16 14.5 C 16 14.223858 15.776142 14 15.5 14 C 15.223858 14 15 14.223858 15 14.5 C 15 14.776142 15.223858 15 15.5 15 C 15.776142 15 16 14.776142 16 14.5 Z"/>
    <path id="path2" fill="#696969" fill-opacity="0.504306" fill-rule="evenodd" stroke="#696969" stroke-width="2" stroke-opacity="0.496802" stroke-linecap="round" stroke-linejoin="round" d="M 8 13.5 C 8 13.223858 7.776142 13 7.5 13 C 7.223857 13 7 13.223858 7 13.5 C 7 13.776142 7.223857 14 7.5 14 C 7.776142 14 8 13.776142 8 13.5 Z"/>
    <path id="path3" fill="#696969" fill-opacity="0.504306" fill-rule="evenodd" stroke="#696969" stroke-width="2" stroke-opacity="0.496802" stroke-linecap="round" stroke-linejoin="round" d="M 8 17.5 C 8 17.223858 7.776142 17 7.5 17 C 7.223857 17 7 17.223858 7 17.5 C 7 17.776142 7.223857 18 7.5 18 C 7.776142 18 8 17.776142 8 17.5 Z"/>
    <path id="path4" fill="#696969" fill-opacity="0.504306" fill-rule="evenodd" stroke="#696969" stroke-width="2" stroke-opacity="0.496802" stroke-linecap="round" stroke-linejoin="round" d="M 13 11.5 C 13 11.223858 12.776142 11 12.5 11 C 12.223858 11 12 11.223858 12 11.5 C 12 11.776142 12.223858 12 12.5 12 C 12.776142 12 13 11.776142 13 11.5 Z"/>
    <path id="path5" fill="#696969" fill-opacity="0.504306" fill-rule="evenodd" stroke="#696969" stroke-width="2" stroke-opacity="0.496802" stroke-linecap="round" stroke-linejoin="round" d="M 9 8.5 C 9 8.223858 8.776142 8 8.5 8 C 8.223858 8 8 8.223858 8 8.5 C 8 8.776142 8.223858 9 8.5 9 C 8.776142 9 9 8.776142 9 8.5 Z"/>
    <path id="path6" fill="#696969" fill-opacity="0.504306" fill-rule="evenodd" stroke="#696969" stroke-width="2" stroke-opacity="0.496802" stroke-linecap="round" stroke-linejoin="round" d="M 12 15.5 C 12 15.223858 11.776142 15 11.5 15 C 11.223858 15 11 15.223858 11 15.5 C 11 15.776142 11.223858 16 11.5 16 C 11.776142 16 12 15.776142 12 15.5 Z"/>
    <path id="path7" fill="#696969" fill-opacity="0.504306" fill-rule="evenodd" stroke="#696969" stroke-width="2" stroke-opacity="0.496802" stroke-linecap="round" stroke-linejoin="round" d="M 20 4.5 C 20 4.223858 19.776142 4 19.5 4 C 19.223858 4 19 4.223858 19 4.5 C 19 4.776142 19.223858 5 19.5 5 C 19.776142 5 20 4.776142 20 4.5 Z"/>
    <path id="path8" fill="#696969" fill-opacity="0.504306" fill-rule="evenodd" stroke="#696969" stroke-width="2" stroke-opacity="0.496802" stroke-linecap="round" stroke-linejoin="round" d="M 16 3.5 C 16 3.223858 15.776142 3 15.5 3 C 15.223858 3 15 3.223858 15 3.5 C 15 3.776142 15.223858 4 15.5 4 C 15.776142 4 16 3.776142 16 3.5 Z"/>
    <path id="path9" fill="#696969" fill-opacity="0.504306" fill-rule="evenodd" stroke="#696969" stroke-width="2" stroke-opacity="0.496802" stroke-linecap="round" stroke-linejoin="round" d="M 15 7.5 C 15 7.223858 14.776142 7 14.5 7 C 14.223858 7 14 7.223858 14 7.5 C 14 7.776142 14.223858 8 14.5 8 C 14.776142 8 15 7.776142 15 7.5 Z"/>
    <path id="path10" fill="#696969" fill-opacity="0.504306" fill-rule="evenodd" stroke="#696969" stroke-width="2" stroke-opacity="0.496802" stroke-linecap="round" stroke-linejoin="round" d="M 20 9.5 C 20 9.223858 19.776142 9 19.5 9 C 19.223858 9 19 9.223858 19 9.5 C 19 9.776142 19.223858 10 19.5 10 C 19.776142 10 20 9.776142 20 9.5 Z"/>
</svg>
