<?xml version="1.0" encoding="UTF-8"?>
<!-- Generated by Pixelmator Pro 2.4.4 -->
<svg width="24" height="24" viewBox="0 0 24 24" xmlns="http://www.w3.org/2000/svg" xmlns:xlink="http://www.w3.org/1999/xlink">
    <path id="Shape" fill="#696969" fill-opacity="0.498601" fill-rule="evenodd" stroke="none" d="M 18.5 22 C 16.567009 22 15 20.432991 15 18.5 C 15 16.567009 16.567009 15 18.5 15 C 20.432991 15 22 16.567009 22 18.5 C 22 20.432991 20.432991 22 18.5 22 Z M 8.5 21 C 7.119292 21 6 19.880707 6 18.5 C 6 17.119293 7.119292 16 8.5 16 C 9.880709 16 11 17.119293 11 18.5 C 11 19.880707 9.880709 21 8.5 21 Z M 6 15 C 3.790863 15 2 13.209137 2 11 C 2 8.790863 3.790863 7 6 7 C 8.209137 7 10 8.790863 10 11 C 10 13.209137 8.209137 15 6 15 Z M 13.5 14 C 12.119291 14 11 12.880709 11 11.5 C 11 10.119291 12.119291 9 13.5 9 C 14.880709 9 16 10.119291 16 11.5 C 16 12.880709 14.880709 14 13.5 14 Z M 18 8 C 16.343151 8 15 6.656849 15 5 C 15 3.343151 16.343151 2 18 2 C 19.656849 2 21 3.343151 21 5 C 21 6.656849 19.656849 8 18 8 Z M 11 6 C 9.895432 6 9 5.104567 9 4 C 9 2.895435 9.895432 2 11 2 C 12.104568 2 13 2.895435 13 4 C 13 5.104567 12.104568 6 11 6 Z"/>
</svg>
