<?xml version="1.0" encoding="UTF-8"?>
<!-- Generated by Pixelmator Pro 2.4.4 -->
<svg width="24" height="24" viewBox="0 0 24 24" xmlns="http://www.w3.org/2000/svg" xmlns:xlink="http://www.w3.org/1999/xlink">
    <path id="Path" fill="none" stroke="none" d="M 0 0 L 24 0 L 24 24 L 0 24 Z"/>
    <path id="path1" fill="none" stroke="#919191" stroke-width="2" stroke-linecap="round" stroke-linejoin="round" d="M 7 7 L 6 7 C 4.895431 7 4 7.895432 4 9 L 4 18 C 4 19.10457 4.895431 20 6 20 L 15 20 C 16.10457 20 17 19.10457 17 18 L 17 17"/>
    <path id="path2" fill="none" stroke="#919191" stroke-width="2" stroke-linecap="round" stroke-linejoin="round" d="M 20.385 6.584999 C 21.205143 5.764858 21.205143 4.435143 20.385 3.615 C 19.564857 2.794857 18.235144 2.794857 17.415001 3.615 L 9 12 L 9 15 L 12 15 L 20.385 6.584999 Z"/>
    <path id="path3" fill="none" stroke="#919191" stroke-width="2" stroke-linecap="round" stroke-linejoin="round" d="M 16 5 L 19 8"/>
</svg>
